<?xml version="1.0" encoding="utf-8" ?>
<svg xmlns="http://www.w3.org/2000/svg" xmlns:xlink="http://www.w3.org/1999/xlink" width="809" height="809">
	<clipPath id="cl_3">
		<rect y="-0.00012207031" width="809" height="809"/>
	</clipPath>
	<g clip-path="url(#cl_3)">
		<path fill="#14F8FC" transform="matrix(0.790039 0 0 0.790039 -101.125 -0.00012207)" d="M0 0L1278.91 0C1279.59 1.20588 1279.86 2.03834 1279.93 3.42311C1280.33 12.1187 1280 20.957 1280 29.6715L1280.01 79.7198L1280.01 232.272L1280.01 853.53L1280 980.321C1280 987.182 1281 1017.79 1279.69 1022.3C1279.51 1022.9 1279.18 1023.45 1278.91 1024L0 1024L0 0ZM883.234 294.63C818.848 223.373 741.667 190.025 646.473 185.241C627.53 184.289 606.971 186.359 588.294 189.451C523.246 200.221 466.373 227.5 417.508 272.025C351.6 332.08 316.818 411.461 312.8 500.017C312.29 511.251 312.628 522.651 313.311 533.87C313.676 539.863 314.466 545.985 314.524 551.972C314.491 553.914 314.746 555.592 313.763 557.308C305.241 559.494 295.592 560.259 286.818 561.093C289.847 577.569 292.147 594.319 295.794 610.658C280.374 613.505 264.839 615.739 249.381 618.378C236.927 620.505 224.185 623.333 211.601 624.316L232.442 642.221L229.939 643.848L229.729 644.918C248.788 660.689 266.513 677.761 285.363 693.718C278.352 711.592 271.563 729.552 264.998 747.595C261.61 756.74 257.863 765.9 254.862 775.171L281.221 770.48C278.493 778.418 275.552 786.273 272.995 794.27C289.451 790.102 306.61 787.637 323.325 784.724C360.98 778.161 398.875 772.645 436.371 765.253C449.496 774.132 461.251 784.985 474.513 793.835C528.784 830.049 588.364 848.861 653.592 850.78C733.665 853.135 818.703 820.943 877.065 765.963C891.094 769.044 905.763 770.747 919.958 773.102C947.658 777.65 975.335 782.342 1002.99 787.179C1015.24 789.303 1027.97 790.717 1040.01 793.742C1040.18 792.81 1040.34 792.106 1040.16 791.156C1038.93 784.681 1034.94 775.864 1032.77 769.267C1026.04 748.591 1019.07 727.991 1011.87 707.474C1020.92 697.919 1079.51 648.937 1081.26 644.076C1072.39 640.977 1059.24 642.307 1051.26 637.661C1054.47 635.883 1063.62 628.17 1064.58 624.937C1057.94 623.182 1050.68 622.348 1043.9 621.079C1031.64 618.779 1019.42 616.333 1007.22 613.741C1007.83 605.221 1014.44 586.938 1011.82 579.868C1009.29 573.018 999.985 576.386 994.829 573.873C994.553 573.738 994.284 573.589 994.012 573.447C994.594 570.149 995.935 565.494 993.669 562.585C991.394 559.664 986.189 559.573 982.816 559.05C984.259 544.445 985.921 530.832 985.521 516.062C983.734 449.988 959.584 386.307 920.721 333.31C912.156 321.63 903.281 309.853 892.655 299.938C889.704 297.185 887.422 294.509 883.234 294.63Z"/>
		<path fill="#FF400D" transform="matrix(0.790039 0 0 0.790039 -101.125 -0.00012207)" d="M314.524 551.972C314.466 545.985 313.676 539.863 313.311 533.87C312.628 522.651 312.29 511.251 312.8 500.017C316.818 411.461 351.6 332.08 417.508 272.025C466.373 227.5 523.246 200.221 588.294 189.451C606.971 186.359 627.53 184.289 646.473 185.241C741.667 190.025 818.848 223.373 883.234 294.63C939.882 359.055 970.644 438.581 965.13 524.957C964.503 534.775 963.954 544.976 962.05 554.641L961.741 555.369C957.95 556.514 946.405 553.969 941.759 553.491C941.649 542.97 943.19 532.344 943.565 521.813C944.419 497.874 942.14 472.844 936.629 449.52C930.613 423.557 920.792 398.626 907.486 375.535C904.542 370.307 900.948 362.791 895.749 359.579C895.593 359.401 895.435 359.225 895.281 359.045C891.688 354.864 888.89 349.204 885.743 344.604C878.892 334.592 871.719 324.956 863.715 315.831C813.529 258.112 742.943 222.082 666.769 215.301C587.656 208.52 509.084 233.406 448.292 284.5C387.544 334.909 349.507 407.553 342.677 486.209C340.642 508.924 341.68 530.613 343.297 553.265C334.15 554.082 324.998 555.597 315.881 556.745C314.769 555.789 314.765 553.453 314.524 551.972Z"/>
		<path fill="#FC0" transform="matrix(0.790039 0 0 0.790039 -101.125 -0.00012207)" d="M615.474 236.238C564.565 241.701 520.908 257.384 479.106 287.175C471.838 292.355 461.498 299.265 455.705 305.94C438.809 319.365 421.088 340.874 408.897 358.706C401.799 369.353 395.475 380.497 389.973 392.05C380.916 413.067 373.725 433.62 368.309 455.907C365.574 469.074 364.135 482.286 363.282 495.699C362.974 510.555 363.19 525.207 363.729 540.053C364.022 543.497 364.094 547.177 365.127 550.48C358.107 551.491 350.345 553.238 343.297 553.265C341.68 530.613 340.642 508.924 342.677 486.209C349.507 407.553 387.544 334.909 448.292 284.5C509.084 233.406 587.656 208.52 666.769 215.301C742.943 222.082 813.529 258.112 863.715 315.831C871.719 324.956 878.892 334.592 885.743 344.604C888.89 349.204 891.688 354.864 895.281 359.045C895.435 359.225 895.593 359.401 895.749 359.579C931.405 426.121 940.398 477.086 931.1 551.957C924.681 551.137 918.253 550.388 911.817 549.71C919.522 496.583 914.582 444.265 891.556 395.316C888.293 384.968 878.862 370.957 872.848 361.769C859.84 342.569 845.598 325.854 829.148 309.549C819.514 300.376 808.791 291.071 797.416 284.126C776.997 269.325 754.992 259.304 731.575 250.307C691.82 237.915 657.145 233.104 615.474 236.238Z"/>
		<defs>
			<linearGradient id="gradient_0" gradientUnits="userSpaceOnUse" x1="603.39374" y1="257.02789" x2="697.32465" y2="317.15161">
				<stop offset="0" stop-color="#F8A422"/>
				<stop offset="1" stop-color="#FFC135"/>
			</linearGradient>
		</defs>
		<path fill="url(#gradient_0)" transform="matrix(0.790039 0 0 0.790039 -101.125 -0.00012207)" d="M615.474 236.238C657.145 233.104 691.82 237.915 731.575 250.307C727.778 258.817 720.437 284.737 716.018 290.317C712.957 286.941 709.083 281.537 704.194 281.198C702.93 281.11 702.046 281.513 700.92 282.028C695.513 287.83 693.45 298.912 690.583 306.32C680.516 332.329 657.399 352.971 633.709 366.638C631.491 360.458 631.069 354.834 630.655 348.344C635.782 346.166 641.104 344.171 645.822 341.182C642.682 330.77 638.486 320.63 635.107 310.277C645.847 302.742 656.626 294.237 666.369 285.451L667.643 285.16L668.878 283.843C669.288 282.086 669.254 281.798 668.704 280.075C667.792 279.068 667.081 278.391 665.775 277.942C660.433 276.105 654.053 275.623 648.449 274.709L618.325 269.694C618.591 258.538 616.772 247.299 615.474 236.238Z"/>
		<path fill="#FCBD36" transform="matrix(0.790039 0 0 0.790039 -101.125 -0.00012207)" d="M455.705 305.94C461.498 299.265 471.838 292.355 479.106 287.175C520.908 257.384 564.565 241.701 615.474 236.238C616.772 247.299 618.591 258.538 618.325 269.694C596.638 265.595 574.91 261.71 553.147 258.037C544.806 267.029 534.58 274.334 525.088 282.071C508.15 295.876 491.082 309.574 474.312 323.578L472.204 324.027C465.819 320.128 459.695 312.236 455.705 305.94Z"/>
		<path fill="#FAAD28" transform="matrix(0.790039 0 0 0.790039 -101.125 -0.00012207)" d="M731.575 250.307C754.992 259.304 776.997 269.325 797.416 284.126C785.109 301 774.321 320.002 763.403 337.832C760.257 342.97 754.137 355.496 749.964 359.008C741.452 334.453 731.486 311.345 716.018 290.317C720.437 284.737 727.778 258.817 731.575 250.307Z"/>
		<path fill="#3F5E68" transform="matrix(0.790039 0 0 0.790039 -101.125 -0.00012207)" d="M553.147 258.037C574.91 261.71 596.638 265.595 618.325 269.694L648.449 274.709C654.053 275.623 660.433 276.105 665.775 277.942C667.081 278.391 667.792 279.068 668.704 280.075C669.254 281.798 669.288 282.086 668.878 283.843L667.643 285.16C656.784 281.76 644.206 280.23 632.927 278.567C607.449 273.298 581.654 269.982 556.258 264.252C537.646 279.236 519.315 294.706 500.855 309.894L479.429 327.594C477.08 329.528 474.418 331.219 472.185 333.26C470.759 334.564 469.746 336.125 469.227 337.98L469.9 338.607C472.424 337.944 474.601 336.492 476.664 334.937C481.059 331.623 485.065 327.718 489.258 324.152C496.209 318.242 503.359 312.536 510.438 306.778C526.33 293.849 543.214 281.686 557.768 267.245C571.945 269.918 586.167 272.347 600.428 274.531C610.256 276.065 620.443 277.289 630.079 279.728L630.56 279.902C628.911 285.261 627.429 290.749 625.127 295.871C614.694 295.482 604.52 293.628 594.027 293.918C567.526 294.648 535.138 305.823 515.557 323.986C511.508 327.742 505.2 334.486 504.991 340.405C504.96 341.293 505.095 342.196 505.232 343.071C500.269 342.97 486.54 341.53 482.918 342.615C482.943 344.22 483.131 345.517 483.547 347.064L482.067 347.628C481.893 346.123 481.517 344.665 481.172 343.192L480.486 343.186L478.438 342.752C475.196 340.495 467.296 342.579 462.443 339.337C461.91 338.383 461.599 338.228 461.753 337.085C462.444 331.964 470.458 326.61 474.312 323.578C491.082 309.574 508.15 295.876 525.088 282.071C534.58 274.334 544.806 267.029 553.147 258.037Z"/>
		<defs>
			<linearGradient id="gradient_1" gradientUnits="userSpaceOnUse" x1="532.53741" y1="282.64563" x2="566.31964" y2="327.8418">
				<stop offset="0" stop-color="#70839E"/>
				<stop offset="1" stop-color="#7F9DAA"/>
			</linearGradient>
		</defs>
		<path fill="url(#gradient_1)" transform="matrix(0.790039 0 0 0.790039 -101.125 -0.00012207)" d="M556.258 264.252C581.654 269.982 607.449 273.298 632.927 278.567L630.079 279.728C620.443 277.289 610.256 276.065 600.428 274.531C586.167 272.347 571.945 269.918 557.768 267.245C543.214 281.686 526.33 293.849 510.438 306.778C503.359 312.536 496.209 318.242 489.258 324.152C485.065 327.718 481.059 331.623 476.664 334.937C474.601 336.492 472.424 337.944 469.9 338.607L469.227 337.98C469.746 336.125 470.759 334.564 472.185 333.26C474.418 331.219 477.08 329.528 479.429 327.594L500.855 309.894C519.315 294.706 537.646 279.236 556.258 264.252Z"/>
		<path fill="#446178" transform="matrix(0.790039 0 0 0.790039 -101.125 -0.00012207)" d="M632.927 278.567C644.206 280.23 656.784 281.76 667.643 285.16L666.369 285.451C654.311 284.207 642.536 281.627 630.56 279.902L630.079 279.728L632.927 278.567Z"/>
		<path fill="#294C5E" transform="matrix(0.790039 0 0 0.790039 -101.125 -0.00012207)" d="M630.56 279.902C642.536 281.627 654.311 284.207 666.369 285.451C656.626 294.237 645.847 302.742 635.107 310.277C638.486 320.63 642.682 330.77 645.822 341.182C641.104 344.171 635.782 346.166 630.655 348.344C626.945 349.742 623.029 350.976 619.437 352.637L614.723 354.318C610.885 355.641 607.035 357.147 603.149 358.301L593.408 361.488C589.68 362.611 585.908 363.946 582.105 364.767L573.773 367.226C569.752 368.284 565.709 369.517 561.647 370.387L552.337 372.649C545.96 374.057 539.562 375.636 533.111 376.65L526.352 378.018C524.517 378.266 522.43 378.644 520.635 377.994C519.066 377.426 518.493 376.193 517.875 374.752C538.501 354.853 569.932 343.295 598.017 339.889C608.995 338.557 619.878 338.578 630.914 338.66C626.666 326.036 622.139 313.709 618.533 300.863C588.061 298.127 565.12 300.42 537.798 315.18C526.846 321.096 512.042 330.557 508.277 343.164L505.232 343.071C505.095 342.196 504.96 341.293 504.991 340.405C505.2 334.486 511.508 327.742 515.557 323.986C535.138 305.823 567.526 294.648 594.027 293.918C604.52 293.628 614.694 295.482 625.127 295.871C627.429 290.749 628.911 285.261 630.56 279.902Z"/>
		<path fill="#294C5E" transform="matrix(0.790039 0 0 0.790039 -101.125 -0.00012207)" d="M633.709 366.638C657.399 352.971 680.516 332.329 690.583 306.32C693.45 298.912 695.513 287.83 700.92 282.028C702.046 281.513 702.93 281.11 704.194 281.198C709.083 281.537 712.957 286.941 716.018 290.317C731.486 311.345 741.452 334.453 749.964 359.008C754.635 372.12 758.899 385.445 761.823 399.071C765.214 412.345 767.451 426.324 768.431 439.991C768.894 450.57 770.262 462.718 762.579 471.208C760.369 471.876 758.241 472.367 755.916 472.072C750.347 471.365 746.497 467.214 743.081 463.174C742.891 463.047 742.703 462.917 742.511 462.794C737.574 459.621 729.399 457.588 723.85 455.531C697.84 445.884 669.166 442.078 641.673 446.941C633.793 448.335 625.993 450.762 618.208 452.651L614.713 453.699L611.316 454.61L608.13 455.418L606.511 456.118C604.824 456.576 603.23 456.923 601.755 457.89C601.849 458.049 601.944 458.208 602.035 458.369C603.981 461.821 604.381 467.965 608.43 469.167L611.309 468.248L613.646 467.426L618.461 466.329C619.827 470.449 621.005 474.792 622.734 478.764C619.181 479.847 615.628 481.019 612.021 481.905C617.851 500.322 625.893 518.118 632.139 536.441L626.308 536.553C620.112 536.443 613.906 536.604 607.71 536.686C597.948 513.15 589.274 488.796 580.77 464.764C577.827 465.62 574.334 467.03 571.281 467.068C563.414 469.47 549.757 467.518 541.723 465.655C534.285 462.305 529.84 458.026 525.298 451.344C524.173 449.149 523.22 446.967 522.461 444.619C518.256 431.604 520.611 420.951 530.213 411.24C533.105 408.316 535.957 406.537 537.848 402.726C537.971 402.478 538.088 402.228 538.208 401.98C541.101 400.306 543.975 399.19 547.125 398.096L553.746 395.985C559.44 394.211 565.12 392.394 570.786 390.535L576.366 388.858L584.384 386.354L590.72 384.238L600.577 381.29L604.344 379.996L612.717 377.18L614.647 376.237C621.189 373.632 627.578 370.094 633.709 366.638ZM703.23 361.5C699.88 346.642 697 330.512 695.967 315.3C676.153 353.347 646.004 373.051 607.016 388.632C608.774 395.415 610.679 402.157 612.732 408.856C616.439 419.958 619.429 431.309 623.039 442.45C662.91 431.099 696.521 436.307 734.682 450.396C721.223 421.598 709.555 392.82 703.23 361.5ZM537.254 431.828C536.46 426.456 535.747 421.127 535.554 415.69C531.216 421.671 528.851 426.548 528.481 433.987C529.023 440.718 531.804 447.835 536.767 452.539C539.044 454.697 543.355 457.892 546.552 457.814C546.717 457.541 546.985 457.308 547.045 456.996C547.128 456.562 544.854 452.61 544.539 451.967C541.274 445.301 538.881 439.08 537.254 431.828ZM614.263 442.106C608.884 424.874 604.523 407.001 598.275 390.093C579.881 396.11 561.36 401.731 542.724 406.953C540.528 422.183 546.482 444.217 555.64 456.671C556.705 458.121 557.929 459.444 559.166 460.747C559.848 461.146 560.643 461.422 561.441 461.446C566.096 461.584 612.831 447.583 615.134 445.535C615.124 444.198 614.748 443.329 614.263 442.106ZM704.653 291.642C701.417 310.93 706.947 337.459 710.995 356.301C718.051 356.329 723.532 358.775 728.529 363.723C735.595 370.721 739.698 381.109 739.572 391.029C739.486 397.731 737.349 406.371 732.244 411.08C731.038 412.191 729.618 413.155 728.288 414.113C734.252 429.454 740.928 445.489 751.123 458.563C752.54 459.615 754.042 460.668 755.909 460.502C757.142 460.391 757.902 459.844 758.571 458.821C763.425 451.4 754.18 405.598 751.734 396.111C743.562 364.415 732.508 332.691 715.312 304.661C713.037 300.952 709.018 293.936 705.076 291.817C704.942 291.745 704.794 291.7 704.653 291.642ZM712.564 362.53C714.471 372.715 720.407 397.607 725.822 405.74L726.771 406.17C727.796 405.379 728.383 404.682 729.093 403.601C732.796 395.844 733.3 387.988 730.479 379.803C728.138 373.009 723.32 367.109 716.739 364.051C715.399 363.428 713.971 362.974 712.564 362.53Z"/>
		<path fill="#FCBD36" transform="matrix(0.790039 0 0 0.790039 -101.125 -0.00012207)" d="M797.416 284.126C808.791 291.071 819.514 300.376 829.148 309.549C816.469 328.292 802.05 346.177 788.472 364.298C780.371 375.109 771.075 389.563 761.823 399.071C758.899 385.445 754.635 372.12 749.964 359.008C754.137 355.496 760.257 342.97 763.403 337.832C774.321 320.002 785.109 301 797.416 284.126Z"/>
		<path fill="#D9DADA" transform="matrix(0.790039 0 0 0.790039 -101.125 -0.00012207)" d="M710.995 356.301C706.947 337.459 701.417 310.93 704.653 291.642C704.794 291.7 704.942 291.745 705.076 291.817C709.018 293.936 713.037 300.952 715.312 304.661C732.508 332.691 743.562 364.415 751.734 396.111C754.18 405.598 763.425 451.4 758.571 458.821C757.902 459.844 757.142 460.391 755.909 460.502C754.042 460.668 752.54 459.615 751.123 458.563C740.928 445.489 734.252 429.454 728.288 414.113C729.618 413.155 731.038 412.191 732.244 411.08C737.349 406.371 739.486 397.731 739.572 391.029C739.698 381.109 735.595 370.721 728.529 363.723C723.532 358.775 718.051 356.329 710.995 356.301Z"/>
		<path fill="#21C8BD" transform="matrix(0.790039 0 0 0.790039 -101.125 -0.00012207)" d="M883.234 294.63C887.422 294.509 889.704 297.185 892.655 299.938C903.281 309.853 912.156 321.63 920.721 333.31C959.584 386.307 983.734 449.988 985.521 516.062C985.921 530.832 984.259 544.445 982.816 559.05C979.547 558.428 964.715 557.034 963.035 555.9C962.593 555.602 962.378 555.061 962.05 554.641C963.954 544.976 964.503 534.775 965.13 524.957C970.644 438.581 939.882 359.055 883.234 294.63Z"/>
		<path fill="#3F5E68" transform="matrix(0.790039 0 0 0.790039 -101.125 -0.00012207)" d="M508.277 343.164C512.042 330.557 526.846 321.096 537.798 315.18C565.12 300.42 588.061 298.127 618.533 300.863C622.139 313.709 626.666 326.036 630.914 338.66C619.878 338.578 608.995 338.557 598.017 339.889C569.932 343.295 538.501 354.853 517.875 374.752C516.421 366.464 511.683 350.949 508.277 343.164Z"/>
		<path fill="#FAAD28" transform="matrix(0.790039 0 0 0.790039 -101.125 -0.00012207)" d="M408.897 358.706C421.088 340.874 438.809 319.365 455.705 305.94C459.695 312.236 465.819 320.128 472.204 324.027L474.312 323.578C470.458 326.61 462.444 331.964 461.753 337.085C461.599 338.228 461.91 338.383 462.443 339.337C467.296 342.579 475.196 340.495 478.438 342.752C480.142 349.391 482.637 356.426 483.313 363.217C481.847 364.576 480.088 365.524 479.844 367.672C479.504 370.663 482.338 374.124 483.961 376.478L483.898 377.317C483.527 381.918 479.612 390.945 482.676 394.719C484.291 396.709 486.903 397.491 489.373 397.669C492.494 397.893 496.389 397.156 498.757 394.957C499.769 394.017 500.457 392.612 500.356 391.221C500.053 387.055 494.671 380.468 492.91 376.343C493.883 373.541 495.188 370.143 493.735 367.274C492.655 365.14 490.833 364.297 488.759 363.384C488.54 363.288 488.325 363.184 488.107 363.086C487.976 363.027 487.844 362.971 487.713 362.914L483.547 347.064C483.131 345.517 482.943 344.22 482.918 342.615C486.54 341.53 500.269 342.97 505.232 343.071L508.277 343.164C511.683 350.949 516.421 366.464 517.875 374.752C518.493 376.193 519.066 377.426 520.635 377.994C522.43 378.644 524.517 378.266 526.352 378.018C531.876 386.05 541.484 390.533 547.125 398.096C543.975 399.19 541.101 400.306 538.208 401.98C538.088 402.228 537.971 402.478 537.848 402.726C535.957 406.537 533.105 408.316 530.213 411.24C520.611 420.951 518.256 431.604 522.461 444.619C523.22 446.967 524.173 449.149 525.298 451.344C524.653 451.282 523.339 451.196 522.79 450.933C520.176 449.681 494.516 427.622 489.614 423.585C462.958 401.65 436.05 380.022 408.897 358.706Z"/>
		<path fill="#FAAD28" transform="matrix(0.790039 0 0 0.790039 -101.125 -0.00012207)" d="M761.823 399.071C771.075 389.563 780.371 375.109 788.472 364.298C802.05 346.177 816.469 328.292 829.148 309.549C845.598 325.854 859.84 342.569 872.848 361.769C863.315 367.227 771.889 434.45 768.973 438.549C768.675 438.968 768.612 439.51 768.431 439.991C767.451 426.324 765.214 412.345 761.823 399.071Z"/>
		<path fill="#F9FEFE" transform="matrix(0.790039 0 0 0.790039 -101.125 -0.00012207)" d="M703.23 361.5C679.509 385.405 644.929 400.595 612.732 408.856C610.679 402.157 608.774 395.415 607.016 388.632C646.004 373.051 676.153 353.347 695.967 315.3C697 330.512 699.88 346.642 703.23 361.5Z"/>
		<path fill="#86926D" transform="matrix(0.790039 0 0 0.790039 -101.125 -0.00012207)" d="M480.486 343.186L481.172 343.192C481.517 344.665 481.893 346.123 482.067 347.628L485.793 362.071C483.26 358.753 480.237 347.42 480.486 343.186Z"/>
		<path fill="#294C5E" transform="matrix(0.790039 0 0 0.790039 -101.125 -0.00012207)" d="M478.438 342.752L480.486 343.186C480.237 347.42 483.26 358.753 485.793 362.071L482.067 347.628L483.547 347.064L487.713 362.914C487.844 362.971 487.976 363.027 488.107 363.086C488.325 363.184 488.54 363.288 488.759 363.384C490.833 364.297 492.655 365.14 493.735 367.274C495.188 370.143 493.883 373.541 492.91 376.343C494.671 380.468 500.053 387.055 500.356 391.221C500.457 392.612 499.769 394.017 498.757 394.957C496.389 397.156 492.494 397.893 489.373 397.669C486.903 397.491 484.291 396.709 482.676 394.719C479.612 390.945 483.527 381.918 483.898 377.317L483.961 376.478C482.338 374.124 479.504 370.663 479.844 367.672C480.088 365.524 481.847 364.576 483.313 363.217C482.637 356.426 480.142 349.391 478.438 342.752ZM487.403 365.177C485.227 365.832 482.243 366.731 480.86 368.634C481.038 370.354 480.981 370.28 482.303 371.389C482.678 371.432 483.61 371.616 483.964 371.541C486.804 371.358 490.366 372.041 492.891 370.895C493.457 369.769 493.464 369.604 492.996 368.343C492.653 367.419 492.016 366.876 491.328 366.2C489.998 365.719 488.82 365.353 487.403 365.177ZM488.732 372.226C486.535 372.569 485.627 372.361 484.079 374.023C483.817 375.507 483.934 375.453 484.776 376.727C485.829 377.278 486.666 377.772 487.858 377.941C489.907 376.884 491.198 376.179 492.328 374.119L492.263 372.978C491.044 372.103 490.156 372.192 488.732 372.226Z"/>
		<path fill="#FAAD28" transform="matrix(0.790039 0 0 0.790039 -101.125 -0.00012207)" d="M619.437 352.637C623.029 350.976 626.945 349.742 630.655 348.344C631.069 354.834 631.491 360.458 633.709 366.638C627.578 370.094 621.189 373.632 614.647 376.237C615.714 371.743 620.763 355.918 619.437 352.637Z"/>
		<path fill="#FCBD36" transform="matrix(0.790039 0 0 0.790039 -101.125 -0.00012207)" d="M614.723 354.318L619.437 352.637C620.763 355.918 615.714 371.743 614.647 376.237L612.717 377.18C611.651 369.473 613.115 361.84 614.723 354.318Z"/>
		<path fill="#FAAD28" transform="matrix(0.790039 0 0 0.790039 -101.125 -0.00012207)" d="M603.149 358.301C607.035 357.147 610.885 355.641 614.723 354.318C613.115 361.84 611.651 369.473 612.717 377.18L604.344 379.996C604.191 373.783 605.109 364.072 603.149 358.301Z"/>
		<path fill="#FCBD36" transform="matrix(0.790039 0 0 0.790039 -101.125 -0.00012207)" d="M389.973 392.05C395.475 380.497 401.799 369.353 408.897 358.706C436.05 380.022 462.958 401.65 489.614 423.585C494.516 427.622 520.176 449.681 522.79 450.933C523.339 451.196 524.653 451.282 525.298 451.344C529.84 458.026 534.285 462.305 541.723 465.655C541.899 466.261 541.955 466.916 542.252 467.474C543.242 469.331 547.409 472.092 549.097 473.49C555.524 478.811 562.156 483.954 568.43 489.451C572.656 493.155 577.69 499.348 582.474 501.995C583.46 502.54 584.388 502.531 585.488 502.526C589.961 513.797 595.139 525.308 598.414 536.967C584.602 537.431 570.784 537.657 556.965 537.647L559.455 536.692L559.296 535.857C548.914 530.15 495.705 522.802 480.598 519.74L397.056 502.524C385.838 500.264 374.583 497.454 363.282 495.699C364.135 482.286 365.574 469.074 368.309 455.907C368.543 456.256 368.662 456.721 369.012 456.954C370.753 458.11 396.189 465.738 400.171 467.077C437.949 479.651 475.57 492.693 513.024 506.202C537.243 515.117 561.069 525.643 585.749 533.195C576.752 523.896 564.77 516.02 554.403 508.306C532.949 492.341 511.412 476.896 489.382 461.727L389.973 392.05Z"/>
		<path fill="#FCBD36" transform="matrix(0.790039 0 0 0.790039 -101.125 -0.00012207)" d="M593.408 361.488L603.149 358.301C605.109 364.072 604.191 373.783 604.344 379.996L600.577 381.29C599.483 374.555 595.272 368.136 593.408 361.488Z"/>
		<path fill="#B73F22" transform="matrix(0.790039 0 0 0.790039 -101.125 -0.00012207)" d="M895.749 359.579C900.948 362.791 904.542 370.307 907.486 375.535C920.792 398.626 930.613 423.557 936.629 449.52C942.14 472.844 944.419 497.874 943.565 521.813C943.19 532.344 941.649 542.97 941.759 553.491L931.1 551.957C940.398 477.086 931.405 426.121 895.749 359.579Z"/>
		<path fill="#FAAD28" transform="matrix(0.790039 0 0 0.790039 -101.125 -0.00012207)" d="M582.105 364.767C585.908 363.946 589.68 362.611 593.408 361.488C595.272 368.136 599.483 374.555 600.577 381.29L590.72 384.238C587.765 377.69 584.41 371.613 582.105 364.767Z"/>
		<path fill="#D9DADA" transform="matrix(0.790039 0 0 0.790039 -101.125 -0.00012207)" d="M612.732 408.856C644.929 400.595 679.509 385.405 703.23 361.5C709.555 392.82 721.223 421.598 734.682 450.396C696.521 436.307 662.91 431.099 623.039 442.45C619.429 431.309 616.439 419.958 612.732 408.856Z"/>
		<path fill="#FCBD36" transform="matrix(0.790039 0 0 0.790039 -101.125 -0.00012207)" d="M768.431 439.991C768.612 439.51 768.675 438.968 768.973 438.549C771.889 434.45 863.315 367.227 872.848 361.769C878.862 370.957 888.293 384.968 891.556 395.316C880.609 401.51 870.056 408.723 859.472 415.531C838.12 429.454 816.901 443.579 795.819 457.906C783.656 466.374 771.553 474.927 759.511 483.564C736.501 500.29 700.617 528.933 673.273 533.974C681.94 527.121 691.859 521.432 701.108 515.393C712.639 507.866 723.94 499.994 735.478 492.469C742.207 488.08 756.568 479.728 761.448 473.943C762.197 473.054 762.328 472.315 762.579 471.208C770.262 462.718 768.894 450.57 768.431 439.991Z"/>
		<path fill="#FF400D" transform="matrix(0.790039 0 0 0.790039 -101.125 -0.00012207)" d="M729.093 403.601C728.383 404.682 727.796 405.379 726.771 406.17L725.822 405.74C720.407 397.607 714.471 372.715 712.564 362.53C713.971 362.974 715.399 363.428 716.739 364.051C723.32 367.109 728.138 373.009 730.479 379.803C733.3 387.988 732.796 395.844 729.093 403.601Z"/>
		<path fill="#21C8BD" transform="matrix(0.790039 0 0 0.790039 -101.125 -0.00012207)" d="M483.964 371.541C483.61 371.616 482.678 371.432 482.303 371.389C480.981 370.28 481.038 370.354 480.86 368.634C482.243 366.731 485.227 365.832 487.403 365.177C488.82 365.353 489.998 365.719 491.328 366.2C492.016 366.876 492.653 367.419 492.996 368.343C493.464 369.604 493.457 369.769 492.891 370.895C490.366 372.041 486.804 371.358 483.964 371.541Z"/>
		<path fill="#FCBD36" transform="matrix(0.790039 0 0 0.790039 -101.125 -0.00012207)" d="M573.773 367.226L582.105 364.767C584.41 371.613 587.765 377.69 590.72 384.238L584.384 386.354C580.342 380.159 576.749 374.025 573.773 367.226Z"/>
		<path fill="#FAAD28" transform="matrix(0.790039 0 0 0.790039 -101.125 -0.00012207)" d="M561.647 370.387C565.709 369.517 569.752 368.284 573.773 367.226C576.749 374.025 580.342 380.159 584.384 386.354L576.366 388.858C572.392 382.012 567.433 375.788 561.647 370.387Z"/>
		<path fill="#FCBD36" transform="matrix(0.790039 0 0 0.790039 -101.125 -0.00012207)" d="M552.337 372.649L561.647 370.387C567.433 375.788 572.392 382.012 576.366 388.858L570.786 390.535C563.632 385.674 557.543 379.561 552.337 372.649Z"/>
		<path fill="#21C8BD" transform="matrix(0.790039 0 0 0.790039 -101.125 -0.00012207)" d="M487.858 377.941C486.666 377.772 485.829 377.278 484.776 376.727C483.934 375.453 483.817 375.507 484.079 374.023C485.627 372.361 486.535 372.569 488.732 372.226C490.156 372.192 491.044 372.103 492.263 372.978L492.328 374.119C491.198 376.179 489.907 376.884 487.858 377.941Z"/>
		<path fill="#FAAD28" transform="matrix(0.790039 0 0 0.790039 -101.125 -0.00012207)" d="M533.111 376.65C539.562 375.636 545.96 374.057 552.337 372.649C557.543 379.561 563.632 385.674 570.786 390.535C565.12 392.394 559.44 394.211 553.746 395.985C552.487 391.509 537.208 380.174 533.111 376.65Z"/>
		<path fill="#FCBD36" transform="matrix(0.790039 0 0 0.790039 -101.125 -0.00012207)" d="M526.352 378.018L533.111 376.65C537.208 380.174 552.487 391.509 553.746 395.985L547.125 398.096C541.484 390.533 531.876 386.05 526.352 378.018Z"/>
		<path fill="#FF400D" transform="matrix(0.790039 0 0 0.790039 -101.125 -0.00012207)" d="M598.275 390.093C604.523 407.001 608.884 424.874 614.263 442.106C604.284 447.714 586.69 452.065 575.363 455.272C570.021 456.784 564.023 458.024 559.166 460.747C557.929 459.444 556.705 458.121 555.64 456.671C546.482 444.217 540.528 422.183 542.724 406.953C561.36 401.731 579.881 396.11 598.275 390.093ZM592.949 395.848C585.841 397.955 553.296 406.345 549.958 410.271C550.334 412.135 551.268 412.893 552.865 413.944C553.042 414.061 553.229 414.164 553.412 414.273C564.96 411.569 584.905 406.348 595.131 401.298C595.729 400.152 595.798 400.047 595.326 398.753C594.891 397.558 593.998 396.534 592.949 395.848Z"/>
		<path fill="#FAAD28" transform="matrix(0.790039 0 0 0.790039 -101.125 -0.00012207)" d="M368.309 455.907C373.725 433.62 380.916 413.067 389.973 392.05L489.382 461.727C511.412 476.896 532.949 492.341 554.403 508.306C564.77 516.02 576.752 523.896 585.749 533.195C561.069 525.643 537.243 515.117 513.024 506.202C475.57 492.693 437.949 479.651 400.171 467.077C396.189 465.738 370.753 458.11 369.012 456.954C368.662 456.721 368.543 456.256 368.309 455.907Z"/>
		<path fill="#F79268" transform="matrix(0.790039 0 0 0.790039 -101.125 -0.00012207)" d="M553.412 414.273C553.229 414.164 553.042 414.061 552.865 413.944C551.268 412.893 550.334 412.135 549.958 410.271C553.296 406.345 585.841 397.955 592.949 395.848C593.998 396.534 594.891 397.558 595.326 398.753C595.798 400.047 595.729 400.152 595.131 401.298C584.905 406.348 564.96 411.569 553.412 414.273Z"/>
		<path fill="#FAAD28" transform="matrix(0.790039 0 0 0.790039 -101.125 -0.00012207)" d="M673.273 533.974C700.617 528.933 736.501 500.29 759.511 483.564C771.553 474.927 783.656 466.374 795.819 457.906C816.901 443.579 838.12 429.454 859.472 415.531C870.056 408.723 880.609 401.51 891.556 395.316C914.582 444.265 919.522 496.583 911.817 549.71C892.105 546.967 872.064 545.467 852.224 543.939C832.045 542.386 811.723 540.826 791.499 540.077L748.677 538.484C741.451 538.269 733.594 538.795 726.467 537.737C713.284 533.731 672.658 537.932 664.748 534.606C664.897 533.084 675.829 525.809 678.074 523.911C700.462 504.983 722.73 484.241 743.081 463.174C746.497 467.214 750.347 471.365 755.916 472.072C758.241 472.367 760.369 471.876 762.579 471.208C762.328 472.315 762.197 473.054 761.448 473.943C756.568 479.728 742.207 488.08 735.478 492.469C723.94 499.994 712.639 507.866 701.108 515.393C691.859 521.432 681.94 527.121 673.273 533.974Z"/>
		<path fill="#F9FEFE" transform="matrix(0.790039 0 0 0.790039 -101.125 -0.00012207)" d="M535.554 415.69C535.747 421.127 536.46 426.456 537.254 431.828C534.303 432.478 531.38 433.133 528.481 433.987C528.851 426.548 531.216 421.671 535.554 415.69Z"/>
		<defs>
			<linearGradient id="gradient_2" gradientUnits="userSpaceOnUse" x1="531.10822" y1="433.46509" x2="544.80487" y2="456.84216">
				<stop offset="0" stop-color="#D6F1F3"/>
				<stop offset="1" stop-color="#FBFEFE"/>
			</linearGradient>
		</defs>
		<path fill="url(#gradient_2)" transform="matrix(0.790039 0 0 0.790039 -101.125 -0.00012207)" d="M537.254 431.828C538.881 439.08 541.274 445.301 544.539 451.967C544.854 452.61 547.128 456.562 547.045 456.996C546.985 457.308 546.717 457.541 546.552 457.814C543.355 457.892 539.044 454.697 536.767 452.539C531.804 447.835 529.023 440.718 528.481 433.987C531.38 433.133 534.303 432.478 537.254 431.828Z"/>
		<path fill="#D2451F" transform="matrix(0.790039 0 0 0.790039 -101.125 -0.00012207)" d="M614.263 442.106C614.748 443.329 615.124 444.198 615.134 445.535C612.831 447.583 566.096 461.584 561.441 461.446C560.643 461.422 559.848 461.146 559.166 460.747C564.023 458.024 570.021 456.784 575.363 455.272C586.69 452.065 604.284 447.714 614.263 442.106Z"/>
		<path fill="#FCBD36" transform="matrix(0.790039 0 0 0.790039 -101.125 -0.00012207)" d="M618.208 452.651C625.993 450.762 633.793 448.335 641.673 446.941C669.166 442.078 697.84 445.884 723.85 455.531C729.399 457.588 737.574 459.621 742.511 462.794C742.703 462.917 742.891 463.047 743.081 463.174C722.73 484.241 700.462 504.983 678.074 523.911C675.829 525.809 664.897 533.084 664.748 534.606C672.658 537.932 713.284 533.731 726.467 537.737C695.028 537.943 663.588 536.263 632.139 536.441C625.893 518.118 617.851 500.322 612.021 481.905C615.628 481.019 619.181 479.847 622.734 478.764C621.005 474.792 619.827 470.449 618.461 466.329C616.442 462.072 614.653 458.015 611.316 454.61L614.713 453.699C616.897 459.097 619.212 463.298 623.277 467.521C622.164 462.565 620.43 457.225 618.208 452.651Z"/>
		<path fill="#FC0" transform="matrix(0.790039 0 0 0.790039 -101.125 -0.00012207)" d="M614.713 453.699L618.208 452.651C620.43 457.225 622.164 462.565 623.277 467.521C619.212 463.298 616.897 459.097 614.713 453.699Z"/>
		<path fill="#FC0" transform="matrix(0.790039 0 0 0.790039 -101.125 -0.00012207)" d="M608.13 455.418L611.316 454.61C614.653 458.015 616.442 462.072 618.461 466.329L613.646 467.426C610.938 464.907 609.206 458.973 608.13 455.418Z"/>
		<path fill="#FCBD36" transform="matrix(0.790039 0 0 0.790039 -101.125 -0.00012207)" d="M606.511 456.118L608.13 455.418C609.206 458.973 610.938 464.907 613.646 467.426L611.309 468.248C609.521 464.254 608.548 460.088 606.511 456.118Z"/>
		<path fill="#FC0" transform="matrix(0.790039 0 0 0.790039 -101.125 -0.00012207)" d="M601.755 457.89C603.23 456.923 604.824 456.576 606.511 456.118C608.548 460.088 609.521 464.254 611.309 468.248L608.43 469.167C604.381 467.965 603.981 461.821 602.035 458.369C601.944 458.208 601.849 458.049 601.755 457.89Z"/>
		<path fill="#446178" transform="matrix(0.790039 0 0 0.790039 -101.125 -0.00012207)" d="M571.281 467.068C574.334 467.03 577.827 465.62 580.77 464.764C589.274 488.796 597.948 513.15 607.71 536.686L598.414 536.967C595.139 525.308 589.961 513.797 585.488 502.526C581.04 490.778 577.062 478.212 571.281 467.068Z"/>
		<path fill="#FAAD28" transform="matrix(0.790039 0 0 0.790039 -101.125 -0.00012207)" d="M541.723 465.655C549.757 467.518 563.414 469.47 571.281 467.068C577.062 478.212 581.04 490.778 585.488 502.526C584.388 502.531 583.46 502.54 582.474 501.995C577.69 499.348 572.656 493.155 568.43 489.451C562.156 483.954 555.524 478.811 549.097 473.49C547.409 472.092 543.242 469.331 542.252 467.474C541.955 466.916 541.899 466.261 541.723 465.655Z"/>
		<path fill="#FAAD28" transform="matrix(0.790039 0 0 0.790039 -101.125 -0.00012207)" d="M363.282 495.699C374.583 497.454 385.838 500.264 397.056 502.524L480.598 519.74C495.705 522.802 548.914 530.15 559.296 535.857L559.455 536.692L556.965 537.647C512.399 538.167 467.858 541.694 423.41 544.689C409.184 542.944 395.33 541.604 381.014 540.685C375.429 540.326 369.275 539.441 363.729 540.053C363.19 525.207 362.974 510.555 363.282 495.699Z"/>
		<path fill="#6BB359" transform="matrix(0.790039 0 0 0.790039 -101.125 -0.00012207)" d="M632.139 536.441C663.588 536.263 695.028 537.943 726.467 537.737C733.594 538.795 741.451 538.269 748.677 538.484L791.499 540.077C811.723 540.826 832.045 542.386 852.224 543.939C872.064 545.467 892.105 546.967 911.817 549.71C918.253 550.388 924.681 551.137 931.1 551.957L941.759 553.491C946.405 553.969 957.95 556.514 961.741 555.369L962.05 554.641C962.378 555.061 962.593 555.602 963.035 555.9C964.715 557.034 979.547 558.428 982.816 559.05C986.189 559.573 991.394 559.664 993.669 562.585C995.935 565.494 994.594 570.149 994.012 573.447L986.583 609.125C984.573 620.26 966.488 712.203 962.999 716.921L962.666 717.116C941.845 712.896 920.267 710.467 899.17 707.967C887.565 706.564 875.95 705.24 864.326 703.993C857.306 703.059 850.315 702.237 843.254 701.667C825.757 699.177 807.713 698.373 790.085 697.098C741.601 693.498 692.994 691.797 644.377 691.998C623.013 691.86 601.648 692.074 580.291 692.638C553.009 693.523 525.874 695.389 498.65 697.237C477.601 698.666 456.503 699.875 435.532 702.22C429.383 702.964 423.227 703.655 417.066 704.293C405.71 705.491 394.289 706.735 382.981 708.308C360.816 711.558 338.247 714.103 316.28 718.416L315.696 718.564C312.611 716.109 299.1 624.024 295.794 610.658C292.147 594.319 289.847 577.569 286.818 561.093C295.592 560.259 305.241 559.494 313.763 557.308C314.746 555.592 314.491 553.914 314.524 551.972C314.765 553.453 314.769 555.789 315.881 556.745C324.998 555.597 334.15 554.082 343.297 553.265C350.345 553.238 358.107 551.491 365.127 550.48L423.41 544.689C467.858 541.694 512.399 538.167 556.965 537.647C570.784 537.657 584.602 537.431 598.414 536.967L607.71 536.686C613.906 536.604 620.112 536.443 626.308 536.553L632.139 536.441ZM974.715 580.336C975.077 577.939 975.577 575.488 975.717 573.07C943.394 567.845 910.666 564.459 878.077 561.419C839.768 557.845 801.62 554.899 763.144 553.75C731.699 553.083 700.245 552.849 668.793 553.049C621.973 552.893 575.154 553.665 528.364 555.366C490.877 557.065 453.431 559.578 416.053 562.906C394.274 564.802 372.528 567.063 350.824 569.686C336.888 571.459 322.97 573.851 308.997 575.262C309.442 582.293 328.444 693.686 329.912 696.825C330.737 697.349 330.896 697.766 331.912 697.494C333.047 697.19 333.453 696.745 334.287 695.972C336.309 694.723 382.95 689.921 389.949 689.079C576.103 667.091 764.36 670.075 949.724 697.95C952.992 686.775 955.141 674.88 957.621 663.493C963.643 635.852 968.906 608.027 974.715 580.336Z"/>
		<path fill="#FCBD36" transform="matrix(0.790039 0 0 0.790039 -101.125 -0.00012207)" d="M363.729 540.053C369.275 539.441 375.429 540.326 381.014 540.685C395.33 541.604 409.184 542.944 423.41 544.689L365.127 550.48C364.094 547.177 364.022 543.497 363.729 540.053Z"/>
		<path fill="#008040" transform="matrix(0.790039 0 0 0.790039 -101.125 -0.00012207)" d="M974.715 580.336C921.391 570.934 867.182 566.929 813.189 563.364C646.73 551.657 479.512 556.946 314.126 579.15C317.18 600.151 321.345 621.119 324.753 642.089C326.611 653.526 328.55 664.949 330.571 676.358C331.708 682.858 332.557 689.611 334.287 695.972C333.453 696.745 333.047 697.19 331.912 697.494C330.896 697.766 330.737 697.349 329.912 696.825C328.444 693.686 309.442 582.293 308.997 575.262C322.97 573.851 336.888 571.459 350.824 569.686C372.528 567.063 394.274 564.802 416.053 562.906C453.431 559.578 490.877 557.065 528.364 555.366C575.154 553.665 621.973 552.893 668.793 553.049C700.245 552.849 731.699 553.083 763.144 553.75C801.62 554.899 839.768 557.845 878.077 561.419C910.666 564.459 943.394 567.845 975.717 573.07C975.577 575.488 975.077 577.939 974.715 580.336Z"/>
		<path fill="#269862" transform="matrix(0.790039 0 0 0.790039 -101.125 -0.00012207)" d="M314.126 579.15C479.512 556.946 646.73 551.657 813.189 563.364C867.182 566.929 921.391 570.934 974.715 580.336C968.906 608.027 963.643 635.852 957.621 663.493C955.141 674.88 952.992 686.775 949.724 697.95C764.36 670.075 576.103 667.091 389.949 689.079C382.95 689.921 336.309 694.723 334.287 695.972C332.557 689.611 331.708 682.858 330.571 676.358C328.55 664.949 326.611 653.526 324.753 642.089C321.345 621.119 317.18 600.151 314.126 579.15ZM535.455 584.427C532.468 582.933 525.411 583.999 521.862 584.148C522.231 594.78 524.33 618.828 523.009 627.941C522.582 630.892 521.627 633.762 519.593 636.009C517.723 638.074 515.116 639.093 512.357 639.115C508.36 639.147 504.349 638.692 500.903 636.552C501.787 632.046 500.041 598.736 499.216 593.638L496.15 593.048L495.457 591.651C493.125 595.577 498.826 626.045 497.195 629.229C493.624 615.205 496.657 599.462 493.686 585.393C489.288 585.537 484.868 585.78 480.469 585.711C480.665 597.811 480.598 623.142 483.667 633.972C484.946 638.487 487.155 642.779 490.551 646.058C491.45 646.916 492.37 647.752 493.31 648.565C493.881 651.209 498.113 654.613 500.499 656.134C506.847 660.181 515.002 660.717 522.207 659.071C525.49 658.321 528.582 657.028 531.646 655.659L533.245 654.254C536.256 651.65 538.311 649.198 539.991 645.551C541.502 642.272 542.288 638.832 542.588 635.242C543.068 629.507 542.065 596.479 540.443 591.969L539.689 591.991C538.305 593.547 538.004 594.62 537.761 596.67C536.953 592.228 537.662 588.687 535.455 584.427ZM792.477 591.565L791.044 592.253C790.208 590.453 790.873 587.838 791.099 585.902C774.665 585.06 758.216 584.557 741.761 584.392C741.508 588.416 741.333 592.343 741.542 596.372L752.125 596.71C749.407 597.399 746.162 597.328 743.346 597.51C748.171 597.499 754.235 596.768 758.882 597.909C758.688 597.94 758.494 597.974 758.3 598.003C755.179 598.47 751.18 597.72 748.337 598.756L747.642 602.379C749.773 604.144 756.014 603.196 758.729 603.052C757.818 619.079 756.25 635.422 756.614 651.464C760.54 651.519 764.838 651.224 768.708 651.805C768.51 651.785 768.313 651.757 768.115 651.746C764.838 651.552 761.05 652.067 757.678 652.091L763.072 652.968C761.525 653.359 761.352 653.228 760.475 654.529C760.515 656.284 760.39 656.362 761.553 657.645C765.559 659.053 770.741 658.355 774.973 658.33C774.747 640.799 777.83 623.389 776.946 605.763C781.021 603.704 790.929 604.884 795.622 604.875C795.465 601.3 795.972 595.041 794.303 591.881L792.477 591.565ZM608.166 596.12C602.93 588.989 596.465 584.354 587.556 583.034C578.63 581.712 569.62 584.526 562.525 589.972C555.375 595.46 551.155 603.313 550.044 612.217C549.097 619.799 550.103 629.682 554.97 635.87C557.177 638.678 560.832 641.338 562.684 644.147C563.317 647.288 568.118 651.156 570.741 652.883C578.365 657.903 588.089 659.084 596.892 657.087C601.878 655.956 609.101 648.892 611.888 648.624C614.551 650.811 621.382 649.553 625.047 651.017L624.901 652.43C622.136 652.179 618.925 651.46 616.563 653.126C616.729 654.684 616.976 654.949 617.92 656.226C622.034 658.381 627.998 657.617 632.597 657.604C634.126 652.761 635.833 647.955 637.453 643.141C644.894 643.198 653.855 644.126 661.097 642.654C662.181 645.462 663.156 649.659 666.159 650.963C667.795 651.674 669.65 651.548 671.357 651.932L668.346 652.052C666.929 652.96 666.771 653.32 666.006 654.753L666.661 655.774C671.352 658.226 678.351 657.059 683.529 656.87C682.612 654.615 681.864 652.005 680.142 650.244C675.385 641.539 672.255 631.299 668.708 622.007C663.61 608.818 658.392 595.675 653.054 582.581L639.251 582.482C629.881 603.634 622.24 625.563 612.851 646.64C612.128 644.616 609.965 643.292 608.318 642.017L607.73 641.177C604.562 636.873 600.345 633.564 596.338 630.07L596.07 630.426C592.921 634.539 588.834 637.65 583.524 638.165C580.015 638.506 576.023 637.353 573.377 635.011C571.97 629.219 570.178 625.614 570.975 619.407C571.613 614.443 573.857 609.419 577.971 606.399C582.995 602.712 589.163 602.622 595.04 603.553C597.892 605.022 599.354 606.932 601.184 609.459C604.56 606.874 609.912 603.862 610.955 599.563C610.312 597.77 609.581 597.351 608.166 596.12ZM732.073 596.534C726.321 589.509 720.766 583.633 711.305 582.617C704.532 581.889 696.592 583.324 691.175 587.676C687.311 590.78 684.812 595.024 684.304 599.989C683.86 604.343 684.88 609.724 687.709 613.15C688.873 614.56 690.165 615.887 691.427 617.211C692.269 620.061 694.631 621.746 697.136 623.135C703.554 626.692 710.921 628.083 717.551 631.157C716.552 634.327 715.367 636.261 712.377 637.879C709.702 639.326 706.921 639.227 704.076 638.343C700.194 637.138 698.018 634.485 695.728 631.306C691.253 633.506 686.824 635.391 682.084 636.946C684.572 640.038 687.2 643.041 689.292 646.389C689.348 646.479 689.445 646.536 689.522 646.609C689.603 646.926 689.705 647.424 689.861 647.741C692.001 652.105 698.639 655.718 703.178 656.944C710.44 658.905 719.397 658.158 725.951 654.331C730.642 651.591 734.029 647.237 735.246 641.909C736.489 636.464 735.527 628.917 732.526 624.172L731.64 624.145C725.092 613.177 715.558 611.747 704.168 608.151C704.214 608.02 704.257 607.889 704.305 607.759C704.386 607.543 704.474 607.329 704.552 607.113C706.75 601.066 712.416 603.222 716.326 599.124C717.909 600.97 719.761 601.865 721.374 603.453L726.082 609.319C729.346 606.331 733.068 603.921 736.709 601.423C735.273 599.599 733.825 598.057 732.073 596.534ZM401.957 599.263C401.777 597.965 401.845 596.421 401.033 595.386C400.918 597.934 401.301 601.507 399.181 603.258C395.057 606.664 379.354 604.953 373.37 606.508L373.822 604.989C380.408 602.659 392.819 603.27 399.974 603.183C399.723 598.792 399.417 594.497 398.697 590.151C385.279 590.645 371.496 591.962 358.123 593.24C358.967 602.23 363.126 657.504 365.363 661.705C366.319 661.712 367.279 661.742 368.234 661.716L368.234 662.084L367.441 662.983C369.188 663.299 370.867 663.297 372.638 663.296C372.642 665.246 372.438 667.178 373.686 668.707C385.211 669.179 400.253 665.996 412.716 665.687C412.431 662.287 413.721 657.167 411.424 654.464L408.793 654.576L409.18 654.009C408.94 652.25 407.456 651.205 406.249 649.935C406.273 648.347 406.25 647.459 405.398 646.039C400.699 643.991 391.643 646.285 386.458 646.811C385.72 643.569 384.716 640.393 383.769 637.208C389.381 636.943 397.617 637.17 402.736 635.184C402.608 632.242 402.793 628.674 401.892 625.879L401.234 625.808C400.381 626.925 400.109 628.465 399.717 629.797L398.509 628.062C397.779 624.207 397.375 620.264 396.869 616.372C391.702 617.024 386.516 617.506 381.318 617.817C383.531 612.189 381.385 614.605 380.949 611.836C388.269 610.054 397.911 610.169 405.476 610.438C405.518 609.242 405.591 608.052 405.659 606.857C405.813 604.16 406.293 601.288 404.384 599.152L401.957 599.263ZM826.474 601.307C826.25 601.226 826.027 601.141 825.803 601.063C822.821 600.021 820.662 600.401 817.621 600.03C826.241 599.484 835.003 601.826 843.504 601.082C844.426 599.717 845.521 592.818 845.26 591.278C845.098 590.318 844.815 589.824 843.938 589.374C840.912 587.82 810.151 587.142 803.695 586.351C800.512 608.319 800.701 630.955 798.814 653.085C811.068 652.771 828.181 653.375 840.29 655.59C827.629 656.319 814.389 652.692 801.905 654.157C802.723 654.64 803.496 654.847 804.411 655.088C804.514 656.516 804.853 657.878 805.17 659.27C806.703 660.444 841.008 662.461 845.607 662.863C846 659.038 847.006 653.719 845.344 650.088C844.781 648.886 844.2 647.693 843.601 646.508L842.457 648.006C842.367 647.021 842.115 646.18 841.816 645.241C837.717 641.784 820.058 642.133 813.932 641.948L814.842 625.437L815.632 625.368C816.695 625.923 816.754 625.636 817.85 625.308C816.998 625.658 816.481 625.979 815.745 626.507L816.094 627.507L816.493 632.52C815.977 635.514 815.104 638.236 816.856 640.947L818.068 640.574C819.884 638.168 819.896 634.994 820.265 632.08C827.603 631.994 835.055 633.045 842.406 633.367C842.498 629.775 842.885 625.767 842.041 622.246C841.493 619.961 841.293 619.748 839.366 618.589L839.045 616.676C837.834 617.627 837.288 624.477 836.978 626.363L836.323 626.517C837.08 622.62 837.512 618.635 838.046 614.7C831.798 614.265 823.404 615.077 817.479 613.364L817.812 611.529C818.25 612.737 818.484 612.938 819.46 613.795L820.918 613.139C822.316 611.041 822.438 609.264 822.7 606.834C831.573 606.951 840.405 607.712 849.286 607.51C849.464 602.984 849.771 599.273 848.044 594.987L847.288 594.993C846.245 597.584 846.421 600.245 846.404 602.994C840.508 602.996 831.973 603.289 826.474 601.307ZM907.264 608.332C904.218 601.665 900.854 596.808 893.763 594.148C884.034 590.499 870.479 591.041 860.123 590.564C857.435 612.673 855.221 634.836 853.485 657.04C856.004 657.259 866.098 657.36 867.701 659.033C867.85 659.189 867.952 659.385 868.077 659.561C865.132 661.023 862.14 659.064 859.121 660.208C858.674 661.598 858.853 661.895 859.242 663.329C862.072 665.098 869.359 664.722 872.845 664.981C873.452 657.429 873.86 649.563 875.296 642.129C876.647 640.675 878.242 640.436 880.089 639.828C883.483 646.663 886.33 653.99 890.152 660.571C895.035 660.924 899.915 661.33 904.789 661.791C902.145 661.924 899.258 661.934 896.706 662.684L893.416 663.106C892.555 664.08 892.466 664.013 892.522 665.294C896.209 669.165 906.222 668.824 911.349 669.073C910.063 666.315 908.606 661.985 906.027 660.308C902.001 654.877 899.151 646.614 896.185 640.436C897.991 639.978 899.869 639.539 901.558 638.74C905.602 636.825 908.511 632.801 910.03 628.676C911.851 623.731 912.383 616.531 910.087 611.713C909.335 610.133 908.973 608.935 907.264 608.332ZM472.679 620.088L471.113 620.95C470.1 617.259 470.097 613.458 469.258 609.756C467.745 603.077 461.592 596.351 455.726 593.068C444.066 586.541 427.009 588.667 414.197 590.203C414.664 604.318 415.849 618.382 417.044 632.45C417.735 640.572 418.824 648.892 418.792 657.045L419.404 658.105C421.53 658.404 423.546 658.439 425.69 658.388C425.421 659.875 425.304 661.102 425.426 662.612C426.792 663.536 427.766 663.49 429.43 663.476C441.724 663.374 458.959 662.557 468.04 653.214C474.356 646.715 475.68 638.046 475.642 629.334C475.87 627.873 475.866 626.335 475.782 624.858C475.64 622.366 474.474 616.127 472.7 614.504L472.296 614.879C472.295 616.644 472.47 618.337 472.679 620.088Z"/>
		<path fill="#21C8BD" transform="matrix(0.790039 0 0 0.790039 -101.125 -0.00012207)" d="M986.583 609.125L994.012 573.447C994.284 573.589 994.553 573.738 994.829 573.873C999.985 576.386 1009.29 573.018 1011.82 579.868C1014.44 586.938 1007.83 605.221 1007.22 613.741C1000.33 612.338 993.328 611.109 986.583 609.125Z"/>
		<path fill="#FDFCD0" transform="matrix(0.790039 0 0 0.790039 -101.125 -0.00012207)" d="M562.684 644.147C560.832 641.338 557.177 638.678 554.97 635.87C550.103 629.682 549.097 619.799 550.044 612.217C551.155 603.313 555.375 595.46 562.525 589.972C569.62 584.526 578.63 581.712 587.556 583.034C596.465 584.354 602.93 588.989 608.166 596.12C604.996 598.624 601.803 601.514 598.107 603.182C597.212 602.738 596.586 602.344 595.866 601.65L594.919 601.187C591.866 597.866 588.074 596.092 583.552 595.845C578.709 595.551 573.955 597.245 570.388 600.534C566.244 604.427 564.992 610.159 564.99 615.636C564.989 618.93 565.369 622.056 565.952 625.292C566.525 627.846 567.659 629.99 569.749 631.61C570.891 632.856 571.937 634.097 573.377 635.011C576.023 637.353 580.015 638.506 583.524 638.165C588.834 637.65 592.921 634.539 596.07 630.426L596.338 630.07C600.345 633.564 604.562 636.873 607.73 641.177L605.561 639.977C602.439 641.194 600.237 644.477 597.544 646.466C588.525 653.125 575.839 649.976 566.264 646.736C565.56 645.711 563.762 644.839 562.684 644.147Z"/>
		<path fill="#FDFCD0" transform="matrix(0.790039 0 0 0.790039 -101.125 -0.00012207)" d="M658.825 636.259C653.265 634.989 637.821 633.091 633.061 635.845C628.188 638.666 629.784 647.479 625.047 651.017C621.382 649.553 614.551 650.811 611.888 648.624L612.851 646.64C622.24 625.563 629.881 603.634 639.251 582.482L653.054 582.581C658.392 595.675 663.61 608.818 668.708 622.007C672.255 631.299 675.385 641.539 680.142 650.244L669.424 650.384L677.837 651.266C676.061 652.157 673.341 651.884 671.357 651.932C669.65 651.548 667.795 651.674 666.159 650.963C663.156 649.659 662.181 645.462 661.097 642.654C660.542 640.929 659.957 639.35 659.143 637.73L658.825 636.259ZM647.106 603.564L645.955 600.977L645.19 600.926C641.447 608.63 639.748 617.213 636.05 624.912C642.232 624.996 648.414 625.014 654.596 624.964C652.971 620.096 651.539 615.033 649.589 610.29C648.868 607.983 648.169 605.745 647.106 603.564Z"/>
		<path fill="#FDFCD0" transform="matrix(0.790039 0 0 0.790039 -101.125 -0.00012207)" d="M691.427 617.211C690.165 615.887 688.873 614.56 687.709 613.15C684.88 609.724 683.86 604.343 684.304 599.989C684.812 595.024 687.311 590.78 691.175 587.676C696.592 583.324 704.532 581.889 711.305 582.617C720.766 583.633 726.321 589.509 732.073 596.534C728.646 598.999 725.116 601.483 721.374 603.453C719.761 601.865 717.909 600.97 716.326 599.124C713.859 596.783 711.235 594.973 707.69 594.948C706.132 594.938 703.758 595.68 702.635 596.801C702.492 596.944 702.399 597.131 702.281 597.295C702.417 597.219 702.551 597.141 702.688 597.067C705.077 595.778 707.827 595.353 710.451 596.316C710.623 596.379 710.773 596.49 710.934 596.576C710.745 596.543 710.557 596.508 710.368 596.477C707.768 596.061 705.328 596.186 703.142 597.822C701.85 598.789 700.843 600.287 700.609 601.902C700.428 603.15 700.623 605.112 701.366 606.164C701.987 607.044 703.24 607.643 704.168 608.151C715.558 611.747 725.092 613.177 731.64 624.145C732.868 630.75 732.682 637.967 728.765 643.728C725.386 648.699 719.699 651.246 713.939 652.205C704.774 653.729 697.485 650.737 689.522 646.609C689.445 646.536 689.348 646.479 689.292 646.389C687.2 643.041 684.572 640.038 682.084 636.946C686.824 635.391 691.253 633.506 695.728 631.306C698.018 634.485 700.194 637.138 704.076 638.343C706.921 639.227 709.702 639.326 712.377 637.879C715.367 636.261 716.552 634.327 717.551 631.157C717.062 629.973 716.535 628.489 715.644 627.549C711.678 623.361 697.806 621.714 691.427 617.211Z"/>
		<path fill="#FDFCD0" transform="matrix(0.790039 0 0 0.790039 -101.125 -0.00012207)" d="M521.862 584.148C525.411 583.999 532.468 582.933 535.455 584.427L535.434 585.137C535.036 601.626 542.734 633.097 530.053 645.406C524.765 650.54 516.509 652.111 509.376 651.83C503.714 651.606 498.697 650.177 493.31 648.565C492.37 647.752 491.45 646.916 490.551 646.058C487.155 642.779 484.946 638.487 483.667 633.972C480.598 623.142 480.665 597.811 480.469 585.711C484.868 585.78 489.288 585.537 493.686 585.393C496.657 599.462 493.624 615.205 497.195 629.229C498.826 626.045 493.125 595.577 495.457 591.651L496.15 593.048C496.78 601.318 497.185 627.9 499.065 633.813C499.414 634.913 500.169 635.695 500.903 636.552C504.349 638.692 508.36 639.147 512.357 639.115C515.116 639.093 517.723 638.074 519.593 636.009C521.627 633.762 522.582 630.892 523.009 627.941C524.33 618.828 522.231 594.78 521.862 584.148Z"/>
		<path fill="#FDFCD0" transform="matrix(0.790039 0 0 0.790039 -101.125 -0.00012207)" d="M791.099 585.902C790.873 587.838 790.208 590.453 791.044 592.253L792.477 591.565C792.184 594.068 791.907 596.573 791.646 599.08L774.773 598.701C772.871 603.246 771.712 644.265 770.963 653.191L763.072 652.968L757.678 652.091C761.05 652.067 764.838 651.552 768.115 651.746C768.313 651.757 768.51 651.785 768.708 651.805C764.838 651.224 760.54 651.519 756.614 651.464C756.25 635.422 757.818 619.079 758.729 603.052L758.882 597.909C754.235 596.768 748.171 597.499 743.346 597.51C746.162 597.328 749.407 597.399 752.125 596.71L741.542 596.372C741.333 592.343 741.508 588.416 741.761 584.392C758.216 584.557 774.665 585.06 791.099 585.902Z"/>
		<path fill="#CAE3B9" transform="matrix(0.790039 0 0 0.790039 -101.125 -0.00012207)" d="M535.455 584.427C537.662 588.687 536.953 592.228 537.761 596.67C538.628 611.83 543.278 633.299 532.961 646.04C531.134 647.548 529.331 649.189 527.37 650.516C521.394 653.125 515.016 654.66 508.464 654.364C503.25 654.127 496.967 652.516 493.31 648.565C498.697 650.177 503.714 651.606 509.376 651.83C516.509 652.111 524.765 650.54 530.053 645.406C542.734 633.097 535.036 601.626 535.434 585.137L535.455 584.427Z"/>
		<path fill="#FDFCD0" transform="matrix(0.790039 0 0 0.790039 -101.125 -0.00012207)" d="M826.474 601.307L818.072 601.212C818.077 604.635 818.222 608.131 817.812 611.529L817.479 613.364C823.404 615.077 831.798 614.265 838.046 614.7C837.512 618.635 837.08 622.62 836.323 626.517L836.978 626.363C837.288 624.477 837.834 617.627 839.045 616.676L839.366 618.589C838.825 621.815 838.484 625.029 838.183 628.285C832.864 627.998 820.587 626.021 816.094 627.507L815.745 626.507C816.481 625.979 816.998 625.658 817.85 625.308C816.754 625.636 816.695 625.923 815.632 625.368L814.842 625.437L813.932 641.948C820.058 642.133 837.717 641.784 841.816 645.241C842.115 646.18 842.367 647.021 842.457 648.006L843.601 646.508L841.839 657.193C829.367 656.785 816.869 655.244 804.411 655.088C803.496 654.847 802.723 654.64 801.905 654.157C814.389 652.692 827.629 656.319 840.29 655.59C828.181 653.375 811.068 652.771 798.814 653.085C800.701 630.955 800.512 608.319 803.695 586.351C810.151 587.142 840.912 587.82 843.938 589.374C844.815 589.824 845.098 590.318 845.26 591.278C845.521 592.818 844.426 599.717 843.504 601.082C835.003 601.826 826.241 599.484 817.621 600.03C820.662 600.401 822.821 600.021 825.803 601.063C826.027 601.141 826.25 601.226 826.474 601.307Z"/>
		<path fill="#FDFCD0" transform="matrix(0.790039 0 0 0.790039 -101.125 -0.00012207)" d="M414.197 590.203C427.009 588.667 444.066 586.541 455.726 593.068C461.592 596.351 467.745 603.077 469.258 609.756C470.097 613.458 470.1 617.259 471.113 620.95L472.679 620.088C472.541 621.644 472.412 623.116 472.047 624.635C471.66 626.249 472.072 628.02 471.963 629.705C471.665 634.313 470.699 638.213 469.28 642.568L467.414 645.1L467.674 643.265L466.972 642.739C465.636 643.691 466.384 644.119 465.578 645.017C465.439 645.172 463.732 644.825 463.454 644.977C460.518 646.584 458.371 649.437 455.061 651.017C442.863 656.839 430.541 653.748 418.792 657.045C418.824 648.892 417.735 640.572 417.044 632.45C415.849 618.382 414.664 604.318 414.197 590.203ZM430.925 607.607L430.023 607.055C429.961 605.032 429.701 604.421 430.867 602.71C435.433 600.61 440.846 602.268 445.641 602.794C441.154 599.64 434.442 600.721 429.222 600.917C429.848 609.859 429.445 619.596 431.042 628.369C431.873 632.934 431 637.544 432.014 642.117L432.673 642.521C433.23 638.305 430.692 631.545 432.369 627.871C432.789 631.929 432.084 639.421 434.687 642.593L437.088 643.155C441.488 641.293 445.744 640.963 449.881 638.197C453.164 636.002 454.911 632.924 455.691 629.104C456.89 623.23 456.896 615.013 453.491 609.868C453.123 609.019 452.677 608.127 451.999 607.478C448.729 604.345 441.55 602.322 437.1 602.277C434.729 602.253 432.644 602.606 430.916 604.227L430.925 607.607Z"/>
		<path fill="#FDFCD0" transform="matrix(0.790039 0 0 0.790039 -101.125 -0.00012207)" d="M399.974 603.183C392.819 603.27 380.408 602.659 373.822 604.989L373.37 606.508C373.731 610.166 373.634 614.966 375.105 618.317C377.166 618.155 379.269 618.075 381.318 617.817C386.516 617.506 391.702 617.024 396.869 616.372C397.375 620.264 397.779 624.207 398.509 628.062C393.758 628.826 378.583 628.604 375.939 631.692C375.887 631.754 375.851 631.828 375.807 631.897L376.283 633.394C376.656 638.275 377.174 643.143 377.835 647.994C380.696 647.589 383.584 647.088 386.458 646.811C391.643 646.285 400.699 643.991 405.398 646.039C406.25 647.459 406.273 648.347 406.249 649.935C406.198 652.816 406.106 655.698 406.236 658.578C398.705 657.548 375.902 659.779 368.234 661.716C367.279 661.742 366.319 661.712 365.363 661.705C363.126 657.504 358.967 602.23 358.123 593.24C371.496 591.962 385.279 590.645 398.697 590.151C399.417 594.497 399.723 598.792 399.974 603.183Z"/>
		<path fill="#FDFCD0" transform="matrix(0.790039 0 0 0.790039 -101.125 -0.00012207)" d="M860.123 590.564C870.479 591.041 884.034 590.499 893.763 594.148C900.854 596.808 904.218 601.665 907.264 608.332C908.392 614.906 907.948 621.682 903.919 627.278C901.13 631.153 897.548 633.28 893.227 635.163L896.185 640.436C899.151 646.614 902.001 654.877 906.027 660.308L907.029 662.807C906.224 663.638 905.958 663.723 904.737 663.77C902.181 663.867 899.264 663.007 896.706 662.684C899.258 661.934 902.145 661.924 904.789 661.791C899.915 661.33 895.035 660.924 890.152 660.571C886.33 653.99 883.483 646.663 880.089 639.828C879.191 638.003 878.155 635.808 876.131 634.983C875.466 634.712 875.424 634.752 874.81 634.721C872.569 636.009 872.103 637.009 871.434 639.476C870.19 644.065 870.791 657.898 868.077 659.561C867.952 659.385 867.85 659.189 867.701 659.033C866.098 657.36 856.004 657.259 853.485 657.04C855.221 634.836 857.435 612.673 860.123 590.564ZM892.455 612.023C891.295 609.755 890.821 608.168 888.191 607.372C885.275 606.489 876.44 607.251 874.844 605.851C877.926 604.881 883.325 605.709 886.64 606.005C882.526 604.536 878.162 604.231 873.849 603.75C874.291 608.075 871.569 619.913 873.239 622.595C878.19 622.547 885.95 623.391 889.811 619.717C892.049 617.588 892.404 614.963 892.455 612.023Z"/>
		<path fill="#1F4D2E" transform="matrix(0.790039 0 0 0.790039 -101.125 -0.00012207)" d="M537.761 596.67C538.004 594.62 538.305 593.547 539.689 591.991L540.443 591.969C542.065 596.479 543.068 629.507 542.588 635.242C542.288 638.832 541.502 642.272 539.991 645.551C538.311 649.198 536.256 651.65 533.245 654.254L531.646 655.659C531.6 654.667 531.36 653.922 531.076 652.976C531.72 652.157 532.476 651.286 532.961 650.363C533.797 648.77 533.36 647.644 532.961 646.04C543.278 633.299 538.628 611.83 537.761 596.67Z"/>
		<path fill="#1F4D2E" transform="matrix(0.790039 0 0 0.790039 -101.125 -0.00012207)" d="M792.477 591.565L794.303 591.881C795.972 595.041 795.465 601.3 795.622 604.875C790.929 604.884 781.021 603.704 776.946 605.763L775.771 605.518C774.663 603.823 775.032 600.796 774.773 598.701L791.646 599.08C791.907 596.573 792.184 594.068 792.477 591.565Z"/>
		<path fill="#1F4D2E" transform="matrix(0.790039 0 0 0.790039 -101.125 -0.00012207)" d="M496.15 593.048L499.216 593.638C500.041 598.736 501.787 632.046 500.903 636.552C500.169 635.695 499.414 634.913 499.065 633.813C497.185 627.9 496.78 601.318 496.15 593.048Z"/>
		<path fill="#1F4D2E" transform="matrix(0.790039 0 0 0.790039 -101.125 -0.00012207)" d="M818.072 601.212L826.474 601.307C831.973 603.289 840.508 602.996 846.404 602.994C846.421 600.245 846.245 597.584 847.288 594.993L848.044 594.987C849.771 599.273 849.464 602.984 849.286 607.51C840.405 607.712 831.573 606.951 822.7 606.834C822.438 609.264 822.316 611.041 820.918 613.139L819.46 613.795C818.484 612.938 818.25 612.737 817.812 611.529C818.222 608.131 818.077 604.635 818.072 601.212Z"/>
		<path fill="#A4C19D" transform="matrix(0.790039 0 0 0.790039 -101.125 -0.00012207)" d="M373.37 606.508C379.354 604.953 395.057 606.664 399.181 603.258C401.301 601.507 400.918 597.934 401.033 595.386C401.845 596.421 401.777 597.965 401.957 599.263C401.957 601.108 402.21 603.164 401.161 604.755C393.344 606.891 383.511 606.625 375.345 607.209C375.686 610.083 376.975 615.427 375.443 617.904C375.349 618.055 375.217 618.179 375.105 618.317C373.634 614.966 373.731 610.166 373.37 606.508Z"/>
		<path fill="#1F4D2E" transform="matrix(0.790039 0 0 0.790039 -101.125 -0.00012207)" d="M704.168 608.151C703.24 607.643 701.987 607.044 701.366 606.164C700.623 605.112 700.428 603.15 700.609 601.902C700.843 600.287 701.85 598.789 703.142 597.822C705.328 596.186 707.768 596.061 710.368 596.477C710.557 596.508 710.745 596.543 710.934 596.576C710.773 596.49 710.623 596.379 710.451 596.316C707.827 595.353 705.077 595.778 702.688 597.067C702.551 597.141 702.417 597.219 702.281 597.295C702.399 597.131 702.492 596.944 702.635 596.801C703.758 595.68 706.132 594.938 707.69 594.948C711.235 594.973 713.859 596.783 716.326 599.124C712.416 603.222 706.75 601.066 704.552 607.113C704.474 607.329 704.386 607.543 704.305 607.759C704.257 607.889 704.214 608.02 704.168 608.151Z"/>
		<path fill="#567453" transform="matrix(0.790039 0 0 0.790039 -101.125 -0.00012207)" d="M589.572 598.764L589.298 597.98C584.972 596.524 578.894 596.709 574.785 598.837C570.599 601.005 568.15 605.196 566.941 609.617C565.318 615.549 566.821 619.964 565.952 625.292C565.369 622.056 564.989 618.93 564.99 615.636C564.992 610.159 566.244 604.427 570.388 600.534C573.955 597.245 578.709 595.551 583.552 595.845C588.074 596.092 591.866 597.866 594.919 601.187C593.039 600.636 591.313 599.647 589.572 598.764Z"/>
		<path fill="#1F4D2E" transform="matrix(0.790039 0 0 0.790039 -101.125 -0.00012207)" d="M608.166 596.12C609.581 597.351 610.312 597.77 610.955 599.563C609.912 603.862 604.56 606.874 601.184 609.459C599.354 606.932 597.892 605.022 595.04 603.553L595.866 601.65C596.586 602.344 597.212 602.738 598.107 603.182C601.803 601.514 604.996 598.624 608.166 596.12Z"/>
		<path fill="#1F4D2E" transform="matrix(0.790039 0 0 0.790039 -101.125 -0.00012207)" d="M732.073 596.534C733.825 598.057 735.273 599.599 736.709 601.423C733.068 603.921 729.346 606.331 726.082 609.319L721.374 603.453C725.116 601.483 728.646 598.999 732.073 596.534Z"/>
		<path fill="#CAE3B9" transform="matrix(0.790039 0 0 0.790039 -101.125 -0.00012207)" d="M589.572 598.764C584.092 597.811 579.292 597.662 574.456 600.959C570.252 603.825 567.879 608.707 567.127 613.638C566.188 619.801 567.48 625.883 569.749 631.61C567.659 629.99 566.525 627.846 565.952 625.292C566.821 619.964 565.318 615.549 566.941 609.617C568.15 605.196 570.599 601.005 574.785 598.837C578.894 596.709 584.972 596.524 589.298 597.98L589.572 598.764Z"/>
		<path fill="#1F4D2E" transform="matrix(0.790039 0 0 0.790039 -101.125 -0.00012207)" d="M569.749 631.61C567.48 625.883 566.188 619.801 567.127 613.638C567.879 608.707 570.252 603.825 574.456 600.959C579.292 597.662 584.092 597.811 589.572 598.764C591.313 599.647 593.039 600.636 594.919 601.187L595.866 601.65L595.04 603.553C589.163 602.622 582.995 602.712 577.971 606.399C573.857 609.419 571.613 614.443 570.975 619.407C570.178 625.614 571.97 629.219 573.377 635.011C571.937 634.097 570.891 632.856 569.749 631.61Z"/>
		<path fill="#1F4D2E" transform="matrix(0.790039 0 0 0.790039 -101.125 -0.00012207)" d="M758.729 603.052C756.014 603.196 749.773 604.144 747.642 602.379L748.337 598.756C751.18 597.72 755.179 598.47 758.3 598.003C758.494 597.974 758.688 597.94 758.882 597.909L758.729 603.052Z"/>
		<path fill="#1F4D2E" transform="matrix(0.790039 0 0 0.790039 -101.125 -0.00012207)" d="M401.957 599.263L404.384 599.152C406.293 601.288 405.813 604.16 405.659 606.857C405.591 608.052 405.518 609.242 405.476 610.438C397.911 610.169 388.269 610.054 380.949 611.836C381.385 614.605 383.531 612.189 381.318 617.817C379.269 618.075 377.166 618.155 375.105 618.317C375.217 618.179 375.349 618.055 375.443 617.904C376.975 615.427 375.686 610.083 375.345 607.209C383.511 606.625 393.344 606.891 401.161 604.755C402.21 603.164 401.957 601.108 401.957 599.263Z"/>
		<path fill="#1F4D2E" transform="matrix(0.790039 0 0 0.790039 -101.125 -0.00012207)" d="M770.963 653.191C771.712 644.265 772.871 603.246 774.773 598.701C775.032 600.796 774.663 603.823 775.771 605.518L776.946 605.763C777.83 623.389 774.747 640.799 774.973 658.33C770.741 658.355 765.559 659.053 761.553 657.645C760.39 656.362 760.515 656.284 760.475 654.529C761.352 653.228 761.525 653.359 763.072 652.968L770.963 653.191Z"/>
		<path fill="#1F4D2E" transform="matrix(0.790039 0 0 0.790039 -101.125 -0.00012207)" d="M429.222 600.917C434.442 600.721 441.154 599.64 445.641 602.794C440.846 602.268 435.433 600.61 430.867 602.71C429.701 604.421 429.961 605.032 430.023 607.055L430.925 607.607L434.139 608.994C434.494 612.865 434.948 616.758 435.045 620.645C434.452 623.099 434.137 625.987 432.369 627.871C430.692 631.545 433.23 638.305 432.673 642.521L432.014 642.117C431 637.544 431.873 632.934 431.042 628.369C429.445 619.596 429.848 609.859 429.222 600.917Z"/>
		<path fill="#269862" transform="matrix(0.790039 0 0 0.790039 -101.125 -0.00012207)" d="M636.05 624.912C639.748 617.213 641.447 608.63 645.19 600.926L645.955 600.977L647.106 603.564C644.201 609.981 640.913 617.06 639.492 623.968C640.38 624.654 641.012 624.451 642.108 624.499C644.092 623.686 644.966 622.743 645.833 620.763C647.324 617.359 648.045 613.685 649.589 610.29C651.539 615.033 652.971 620.096 654.596 624.964C648.414 625.014 642.232 624.996 636.05 624.912Z"/>
		<path fill="#1F4D2E" transform="matrix(0.790039 0 0 0.790039 -101.125 -0.00012207)" d="M430.925 607.607L430.916 604.227C432.644 602.606 434.729 602.253 437.1 602.277C441.55 602.322 448.729 604.345 451.999 607.478C452.677 608.127 453.123 609.019 453.491 609.868C452.98 609.69 452.462 609.529 451.955 609.338C446.945 607.454 439.224 607.454 434.139 608.994L430.925 607.607Z"/>
		<path fill="#1F4D2E" transform="matrix(0.790039 0 0 0.790039 -101.125 -0.00012207)" d="M647.106 603.564C648.169 605.745 648.868 607.983 649.589 610.29C648.045 613.685 647.324 617.359 645.833 620.763C644.966 622.743 644.092 623.686 642.108 624.499C641.012 624.451 640.38 624.654 639.492 623.968C640.913 617.06 644.201 609.981 647.106 603.564Z"/>
		<path fill="#1F4D2E" transform="matrix(0.790039 0 0 0.790039 -101.125 -0.00012207)" d="M886.64 606.005C883.325 605.709 877.926 604.881 874.844 605.851C876.44 607.251 885.275 606.489 888.191 607.372C890.821 608.168 891.295 609.755 892.455 612.023C889.11 613.189 882.511 610.937 878.737 610.815C877.97 614.345 877.629 618.39 876.047 621.624C875.108 622.018 874.232 622.364 873.239 622.595C871.569 619.913 874.291 608.075 873.849 603.75C878.162 604.231 882.526 604.536 886.64 606.005Z"/>
		<path fill="#269862" transform="matrix(0.790039 0 0 0.790039 -101.125 -0.00012207)" d="M434.139 608.994C439.224 607.454 446.945 607.454 451.955 609.338C452.462 609.529 452.98 609.69 453.491 609.868C456.896 615.013 456.89 623.23 455.691 629.104C454.911 632.924 453.164 636.002 449.881 638.197C445.744 640.963 441.488 641.293 437.088 643.155C437.689 636.198 435.799 627.656 435.045 620.645C434.948 616.758 434.494 612.865 434.139 608.994Z"/>
		<path fill="#1F4D2E" transform="matrix(0.790039 0 0 0.790039 -101.125 -0.00012207)" d="M907.264 608.332C908.973 608.935 909.335 610.133 910.087 611.713C912.383 616.531 911.851 623.731 910.03 628.676C908.511 632.801 905.602 636.825 901.558 638.74C899.869 639.539 897.991 639.978 896.185 640.436L893.227 635.163C897.548 633.28 901.13 631.153 903.919 627.278C907.948 621.682 908.392 614.906 907.264 608.332Z"/>
		<path fill="#008040" transform="matrix(0.790039 0 0 0.790039 -101.125 -0.00012207)" d="M986.583 609.125C993.328 611.109 1000.33 612.338 1007.22 613.741C1019.42 616.333 1031.64 618.779 1043.9 621.079C1050.68 622.348 1057.94 623.182 1064.58 624.937C1063.62 628.17 1054.47 635.883 1051.26 637.661C1044.21 645.22 1036.09 652.076 1028.44 659.025C1017.06 669.413 1005.61 679.724 994.087 689.959C1003.68 718.327 1014.34 746.823 1022.49 775.62C991.877 768.407 958.773 764.366 927.655 759L884.974 751.7C877.708 750.509 869.496 748.438 862.151 748.768C869.253 748.117 877.165 744.396 883.987 742.119C896.732 737.821 909.515 733.635 922.334 729.564C934.994 725.586 950.863 722.482 962.666 717.116L962.999 716.921C966.488 712.203 984.573 620.26 986.583 609.125Z"/>
		<path fill="#008040" transform="matrix(0.790039 0 0 0.790039 -101.125 -0.00012207)" d="M211.601 624.316C224.185 623.333 236.927 620.505 249.381 618.378C264.839 615.739 280.374 613.505 295.794 610.658C299.1 624.024 312.611 716.109 315.696 718.564L316.28 718.416C324.854 722.314 345.424 726.488 355.636 729.222L396.201 740.101C403.405 742.032 411.307 744.813 418.725 745.565L420.061 746.751L314.548 764.868C303.481 766.817 292.224 768.306 281.221 770.48L254.862 775.171C257.863 765.9 261.61 756.74 264.998 747.595C271.563 729.552 278.352 711.592 285.363 693.718L287.113 688.767C268.475 673.787 250.762 657.6 232.442 642.221L211.601 624.316Z"/>
		<path fill="#269862" transform="matrix(0.790039 0 0 0.790039 -101.125 -0.00012207)" d="M892.455 612.023C892.404 614.963 892.049 617.588 889.811 619.717C885.95 623.391 878.19 622.547 873.239 622.595C874.232 622.364 875.108 622.018 876.047 621.624C877.629 618.39 877.97 614.345 878.737 610.815C882.511 610.937 889.11 613.189 892.455 612.023Z"/>
		<path fill="#1F4D2E" transform="matrix(0.790039 0 0 0.790039 -101.125 -0.00012207)" d="M472.679 620.088C472.47 618.337 472.295 616.644 472.296 614.879L472.7 614.504C474.474 616.127 475.64 622.366 475.782 624.858C475.866 626.335 475.87 627.873 475.642 629.334C473.397 633.136 473.916 639.291 471.221 642.312L469.28 642.568C470.699 638.213 471.665 634.313 471.963 629.705C472.072 628.02 471.66 626.249 472.047 624.635C472.412 623.116 472.541 621.644 472.679 620.088Z"/>
		<path fill="#1F4D2E" transform="matrix(0.790039 0 0 0.790039 -101.125 -0.00012207)" d="M717.551 631.157C710.921 628.083 703.554 626.692 697.136 623.135C694.631 621.746 692.269 620.061 691.427 617.211C697.806 621.714 711.678 623.361 715.644 627.549C716.535 628.489 717.062 629.973 717.551 631.157Z"/>
		<path fill="#1F4D2E" transform="matrix(0.790039 0 0 0.790039 -101.125 -0.00012207)" d="M839.366 618.589C841.293 619.748 841.493 619.961 842.041 622.246C842.885 625.767 842.498 629.775 842.406 633.367C835.055 633.045 827.603 631.994 820.265 632.08C819.033 632.216 817.699 632.26 816.493 632.52L816.094 627.507C820.587 626.021 832.864 627.998 838.183 628.285C838.484 625.029 838.825 621.815 839.366 618.589Z"/>
		<path fill="#1F4D2E" transform="matrix(0.790039 0 0 0.790039 -101.125 -0.00012207)" d="M432.369 627.871C434.137 625.987 434.452 623.099 435.045 620.645C435.799 627.656 437.689 636.198 437.088 643.155L434.687 642.593C432.084 639.421 432.789 631.929 432.369 627.871Z"/>
		<path fill="#1F4D2E" transform="matrix(0.790039 0 0 0.790039 -101.125 -0.00012207)" d="M731.64 624.145L732.526 624.172C735.527 628.917 736.489 636.464 735.246 641.909C734.029 647.237 730.642 651.591 725.951 654.331C719.397 658.158 710.44 658.905 703.178 656.944C698.639 655.718 692.001 652.105 689.861 647.741C689.705 647.424 689.603 646.926 689.522 646.609C697.485 650.737 704.774 653.729 713.939 652.205C719.699 651.246 725.386 648.699 728.765 643.728C732.682 637.967 732.868 630.75 731.64 624.145Z"/>
		<defs>
			<linearGradient id="gradient_3" gradientUnits="userSpaceOnUse" x1="391.55643" y1="625.05072" x2="387.08676" y2="646.97327">
				<stop offset="0" stop-color="#094225"/>
				<stop offset="1" stop-color="#12784C"/>
			</linearGradient>
		</defs>
		<path fill="url(#gradient_3)" transform="matrix(0.790039 0 0 0.790039 -101.125 -0.00012207)" d="M399.717 629.797C400.109 628.465 400.381 626.925 401.234 625.808L401.892 625.879C402.793 628.674 402.608 632.242 402.736 635.184C397.617 637.17 389.381 636.943 383.769 637.208C384.716 640.393 385.72 643.569 386.458 646.811C383.584 647.088 380.696 647.589 377.835 647.994C377.174 643.143 376.656 638.275 376.283 633.394C381.817 631.581 395.907 632.996 399.717 629.797Z"/>
		<path fill="#567453" transform="matrix(0.790039 0 0 0.790039 -101.125 -0.00012207)" d="M375.807 631.897C375.851 631.828 375.887 631.754 375.939 631.692C378.583 628.604 393.758 628.826 398.509 628.062L399.717 629.797C392.276 629.642 382.995 630.029 375.807 631.897Z"/>
		<path fill="#D9DADA" transform="matrix(0.790039 0 0 0.790039 -101.125 -0.00012207)" d="M375.807 631.897C382.995 630.029 392.276 629.642 399.717 629.797C395.907 632.996 381.817 631.581 376.283 633.394L375.807 631.897Z"/>
		<defs>
			<linearGradient id="gradient_4" gradientUnits="userSpaceOnUse" x1="448.13141" y1="640.62744" x2="455.53687" y2="659.19232">
				<stop offset="0" stop-color="#083F24"/>
				<stop offset="1" stop-color="#0C693B"/>
			</linearGradient>
		</defs>
		<path fill="url(#gradient_4)" transform="matrix(0.790039 0 0 0.790039 -101.125 -0.00012207)" d="M469.28 642.568L471.221 642.312C473.916 639.291 473.397 633.136 475.642 629.334C475.68 638.046 474.356 646.715 468.04 653.214C458.959 662.557 441.724 663.374 429.43 663.476C427.766 663.49 426.792 663.536 425.426 662.612C425.304 661.102 425.421 659.875 425.69 658.388C434.454 658.253 444.615 658.006 453.007 655.515C458.865 653.776 464.446 650.661 467.414 645.1L469.28 642.568Z"/>
		<path fill="#1F4D2E" transform="matrix(0.790039 0 0 0.790039 -101.125 -0.00012207)" d="M816.493 632.52C817.699 632.26 819.033 632.216 820.265 632.08C819.896 634.994 819.884 638.168 818.068 640.574L816.856 640.947C815.104 638.236 815.977 635.514 816.493 632.52Z"/>
		<path fill="#86926D" transform="matrix(0.790039 0 0 0.790039 -101.125 -0.00012207)" d="M658.825 636.259C652.184 636.655 638.856 634.708 633.344 637.301C632.774 638.475 632.826 638.421 633.227 639.672C632.432 642.498 630.573 650.462 627.973 651.893C627.014 652.421 625.966 652.382 624.901 652.43L625.047 651.017C629.784 647.479 628.188 638.666 633.061 635.845C637.821 633.091 653.265 634.989 658.825 636.259Z"/>
		<path fill="#1F4D2E" transform="matrix(0.790039 0 0 0.790039 -101.125 -0.00012207)" d="M880.089 639.828C878.242 640.436 876.647 640.675 875.296 642.129C873.86 649.563 873.452 657.429 872.845 664.981C869.359 664.722 862.072 665.098 859.242 663.329C858.853 661.895 858.674 661.598 859.121 660.208C862.14 659.064 865.132 661.023 868.077 659.561C870.791 657.898 870.19 644.065 871.434 639.476C872.103 637.009 872.569 636.009 874.81 634.721C875.424 634.752 875.466 634.712 876.131 634.983C878.155 635.808 879.191 638.003 880.089 639.828Z"/>
		<path fill="#CAE3B9" transform="matrix(0.790039 0 0 0.790039 -101.125 -0.00012207)" d="M633.227 639.672C632.826 638.421 632.774 638.475 633.344 637.301C638.856 634.708 652.184 636.655 658.825 636.259L659.143 637.73C654.383 637.729 637.1 636.591 633.959 638.564L633.227 639.672Z"/>
		<path fill="#1F4D2E" transform="matrix(0.790039 0 0 0.790039 -101.125 -0.00012207)" d="M633.227 639.672L633.959 638.564C637.1 636.591 654.383 637.729 659.143 637.73C659.957 639.35 660.542 640.929 661.097 642.654C653.855 644.126 644.894 643.198 637.453 643.141C635.833 647.955 634.126 652.761 632.597 657.604C627.998 657.617 622.034 658.381 617.92 656.226C616.976 654.949 616.729 654.684 616.563 653.126C618.925 651.46 622.136 652.179 624.901 652.43C625.966 652.382 627.014 652.421 627.973 651.893C630.573 650.462 632.432 642.498 633.227 639.672Z"/>
		<path fill="#21C8BD" transform="matrix(0.790039 0 0 0.790039 -101.125 -0.00012207)" d="M994.087 689.959C1005.61 679.724 1017.06 669.413 1028.44 659.025C1036.09 652.076 1044.21 645.22 1051.26 637.661C1059.24 642.307 1072.39 640.977 1081.26 644.076C1079.51 648.937 1020.92 697.919 1011.87 707.474C1019.07 727.991 1026.04 748.591 1032.77 769.267C1034.94 775.864 1038.93 784.681 1040.16 791.156C1040.34 792.106 1040.18 792.81 1040.01 793.742C1027.97 790.717 1015.24 789.303 1002.99 787.179C975.335 782.342 947.658 777.65 919.958 773.102C905.763 770.747 891.094 769.044 877.065 765.963C818.703 820.943 733.665 853.135 653.592 850.78C588.364 848.861 528.784 830.049 474.513 793.835C461.251 784.985 449.496 774.132 436.371 765.253C398.875 772.645 360.98 778.161 323.325 784.724C306.61 787.637 289.451 790.102 272.995 794.27C275.552 786.273 278.493 778.418 281.221 770.48C292.224 768.306 303.481 766.817 314.548 764.868L420.061 746.751C435.113 758.961 450.308 770.946 466.756 781.257C529.315 820.716 603.358 837.899 676.897 830.025C732.101 824.305 783.596 802.953 828.846 771.314C839.073 764.164 848.165 755.635 858.226 748.429C859.498 748.557 860.879 748.82 862.151 748.768C869.496 748.438 877.708 750.509 884.974 751.7L927.655 759C958.773 764.366 991.877 768.407 1022.49 775.62C1014.34 746.823 1003.68 718.327 994.087 689.959Z"/>
		<path fill="#A4C19D" transform="matrix(0.790039 0 0 0.790039 -101.125 -0.00012207)" d="M607.73 641.177L608.318 642.017C600.254 648.847 592.657 653.583 581.689 652.725C577.784 652.419 569.294 650.94 566.66 647.711C566.356 647.338 566.377 647.197 566.264 646.736C575.839 649.976 588.525 653.125 597.544 646.466C600.237 644.477 602.439 641.194 605.561 639.977L607.73 641.177Z"/>
		<path fill="#21C8BD" transform="matrix(0.790039 0 0 0.790039 -101.125 -0.00012207)" d="M232.442 642.221C250.762 657.6 268.475 673.787 287.113 688.767L285.363 693.718C266.513 677.761 248.788 660.689 229.729 644.918L229.939 643.848L232.442 642.221Z"/>
		<path fill="#A4C19D" transform="matrix(0.790039 0 0 0.790039 -101.125 -0.00012207)" d="M418.792 657.045C430.541 653.748 442.863 656.839 455.061 651.017C458.371 649.437 460.518 646.584 463.454 644.977C463.732 644.825 465.439 645.172 465.578 645.017C466.384 644.119 465.636 643.691 466.972 642.739L467.674 643.265L467.414 645.1C464.446 650.661 458.865 653.776 453.007 655.515C444.615 658.006 434.454 658.253 425.69 658.388C423.546 658.439 421.53 658.404 419.404 658.105L418.792 657.045Z"/>
		<path fill="#1F4D2E" transform="matrix(0.790039 0 0 0.790039 -101.125 -0.00012207)" d="M566.264 646.736C566.377 647.197 566.356 647.338 566.66 647.711C569.294 650.94 577.784 652.419 581.689 652.725C592.657 653.583 600.254 648.847 608.318 642.017C609.965 643.292 612.128 644.616 612.851 646.64L611.888 648.624C609.101 648.892 601.878 655.956 596.892 657.087C588.089 659.084 578.365 657.903 570.741 652.883C568.118 651.156 563.317 647.288 562.684 644.147C563.762 644.839 565.56 645.711 566.264 646.736Z"/>
		<path fill="#1F4D2E" transform="matrix(0.790039 0 0 0.790039 -101.125 -0.00012207)" d="M527.37 650.516C529.331 649.189 531.134 647.548 532.961 646.04C533.36 647.644 533.797 648.77 532.961 650.363C532.476 651.286 531.72 652.157 531.076 652.976C529.704 652.379 528.57 651.404 527.37 650.516Z"/>
		<path fill="#1F4D2E" transform="matrix(0.790039 0 0 0.790039 -101.125 -0.00012207)" d="M843.601 646.508C844.2 647.693 844.781 648.886 845.344 650.088C847.006 653.719 846 659.038 845.607 662.863C841.008 662.461 806.703 660.444 805.17 659.27C804.853 657.878 804.514 656.516 804.411 655.088C816.869 655.244 829.367 656.785 841.839 657.193L843.601 646.508Z"/>
		<path fill="#1F4D2E" transform="matrix(0.790039 0 0 0.790039 -101.125 -0.00012207)" d="M531.646 655.659C528.582 657.028 525.49 658.321 522.207 659.071C515.002 660.717 506.847 660.181 500.499 656.134C498.113 654.613 493.881 651.209 493.31 648.565C496.967 652.516 503.25 654.127 508.464 654.364C515.016 654.66 521.394 653.125 527.37 650.516C528.57 651.404 529.704 652.379 531.076 652.976C531.36 653.922 531.6 654.667 531.646 655.659Z"/>
		<path fill="#CAE3B9" transform="matrix(0.790039 0 0 0.790039 -101.125 -0.00012207)" d="M406.249 649.935C407.456 651.205 408.94 652.25 409.18 654.009L408.793 654.576C408.71 656.396 408.875 658.483 407.757 659.996C401.614 661.916 379.753 663.253 372.638 663.296C370.867 663.297 369.188 663.299 367.441 662.983L368.234 662.084C379.422 661.76 395.839 660.795 406.686 658.841L406.236 658.578C406.106 655.698 406.198 652.816 406.249 649.935Z"/>
		<path fill="#1F4D2E" transform="matrix(0.790039 0 0 0.790039 -101.125 -0.00012207)" d="M671.357 651.932C673.341 651.884 676.061 652.157 677.837 651.266L669.424 650.384L680.142 650.244C681.864 652.005 682.612 654.615 683.529 656.87C678.351 657.059 671.352 658.226 666.661 655.774L666.006 654.753C666.771 653.32 666.929 652.96 668.346 652.052L671.357 651.932Z"/>
		<path fill="#1F4D2E" transform="matrix(0.790039 0 0 0.790039 -101.125 -0.00012207)" d="M408.793 654.576L411.424 654.464C413.721 657.167 412.431 662.287 412.716 665.687C400.253 665.996 385.211 669.179 373.686 668.707C372.438 667.178 372.642 665.246 372.638 663.296C379.753 663.253 401.614 661.916 407.757 659.996C408.875 658.483 408.71 656.396 408.793 654.576Z"/>
		<path fill="#0A453B" transform="matrix(0.790039 0 0 0.790039 -101.125 -0.00012207)" d="M368.234 661.716C375.902 659.779 398.705 657.548 406.236 658.578L406.686 658.841C395.839 660.795 379.422 661.76 368.234 662.084L368.234 661.716Z"/>
		<path fill="#1F4D2E" transform="matrix(0.790039 0 0 0.790039 -101.125 -0.00012207)" d="M906.027 660.308C908.606 661.985 910.063 666.315 911.349 669.073C906.222 668.824 896.209 669.165 892.522 665.294C892.466 664.013 892.555 664.08 893.416 663.106L896.706 662.684C899.264 663.007 902.181 663.867 904.737 663.77C905.958 663.723 906.224 663.638 907.029 662.807L906.027 660.308Z"/>
		<path fill="#D2451F" transform="matrix(0.790039 0 0 0.790039 -101.125 -0.00012207)" d="M435.532 702.22C456.503 699.875 477.601 698.666 498.65 697.237C525.874 695.389 553.009 693.523 580.291 692.638C601.648 692.074 623.013 691.86 644.377 691.998C644.134 694.686 642.994 700.138 644.655 702.42C645.024 702.926 645.304 702.922 645.927 703.201C631.83 702.386 617.343 703.192 603.215 703.452C562.838 704.422 522.495 706.509 482.233 709.713C474.31 710.285 454.127 710.617 447.286 712.791L446.824 712.745C443.002 709.321 439.028 705.981 435.532 702.22Z"/>
		<path fill="#B73F22" transform="matrix(0.790039 0 0 0.790039 -101.125 -0.00012207)" d="M644.377 691.998C692.994 691.797 741.601 693.498 790.085 697.098C807.713 698.373 825.757 699.177 843.254 701.667C839.239 705.592 835.253 709.55 831.092 713.322L830.835 713.263C826.165 711.229 805.292 710.447 798.917 709.97C758.978 706.978 719.4 704.489 679.343 703.872C668.758 703.709 658.22 703.191 647.627 703.389L645.927 703.201C645.304 702.922 645.024 702.926 644.655 702.42C642.994 700.138 644.134 694.686 644.377 691.998Z"/>
		<path fill="#FF8C19" transform="matrix(0.790039 0 0 0.790039 -101.125 -0.00012207)" d="M417.066 704.293C423.227 703.655 429.383 702.964 435.532 702.22C439.028 705.981 443.002 709.321 446.824 712.745C440.196 712.742 433.029 713.188 426.485 714.222L425.747 713.75C422.717 710.748 419.926 707.458 417.066 704.293Z"/>
		<path fill="#FF8C19" transform="matrix(0.790039 0 0 0.790039 -101.125 -0.00012207)" d="M831.092 713.322C835.253 709.55 839.239 705.592 843.254 701.667C850.315 702.237 857.306 703.059 864.326 703.993C860.365 707.644 856.451 711.347 852.585 715.099L852.175 715.161C846.245 712.835 837.575 714.699 831.092 713.322Z"/>
		<path fill="#FF400D" transform="matrix(0.790039 0 0 0.790039 -101.125 -0.00012207)" d="M447.286 712.791C454.127 710.617 474.31 710.285 482.233 709.713C522.495 706.509 562.838 704.422 603.215 703.452C617.343 703.192 631.83 702.386 645.927 703.201L647.627 703.389C647.572 708.585 647.8 714.003 647.399 719.172C645.461 715.02 643.633 710.753 641.279 706.817C637.846 713.374 634.72 720.785 630.533 726.859L611.391 729.206L615.107 733.372C615.288 736.702 619.31 741.267 621.815 743.439C622.59 744.11 623.067 744.377 624.028 744.661L625.327 743.941L625.896 744.781C624.946 749.279 621.449 760.202 623.146 764.315C624.056 765.699 624.821 767.119 626.232 768.048C631.805 764.9 637.317 762.303 643.186 759.723C645.09 766.83 641.875 781.007 643.839 786.724C644.088 787.45 644.846 787.951 645.436 788.33C630.073 787.444 615.162 787.52 599.854 785.206C553.622 778.216 510.337 759.335 472.321 732.399C463.729 726.311 454.974 720.012 447.286 712.791ZM579.453 729.294C576.881 726.915 569.176 726.744 565.559 726.265C563.393 721.819 561.287 717.33 558.965 712.963C556.706 717.338 554.624 722.049 551.859 726.121C547.08 726.938 542.17 727.495 537.44 728.521C540.97 732.043 544.419 735.848 548.173 739.121C547.377 742.703 544.842 750.322 546.333 753.572C546.564 754.704 547.056 755.328 547.741 756.242C551.056 757.378 558.573 752.562 562.036 751.331L573.825 756.604C572.658 753.113 572.182 749.349 571.551 745.727L571.073 746.236C570.766 745.605 570.853 744.822 570.823 744.127C571.52 744.074 572.162 743.811 572.826 743.602C575.099 741.252 580.693 736.485 581.478 733.322C581.684 732.491 579.944 730.116 579.453 729.294Z"/>
		<path fill="#D2451F" transform="matrix(0.790039 0 0 0.790039 -101.125 -0.00012207)" d="M647.627 703.389C658.22 703.191 668.758 703.709 679.343 703.872C719.4 704.489 758.978 706.978 798.917 709.97C805.292 710.447 826.165 711.229 830.835 713.263C822.231 721.674 812.259 728.974 802.42 735.86C757.138 768.234 703.294 786.486 647.665 788.318L647.074 788.157C648.848 784.449 647.978 766.877 647.854 761.835C650.186 762.566 652.863 763.872 655.231 762.722C655.42 762.63 655.594 762.511 655.776 762.406C656.771 762.939 657.749 763.403 658.561 764.205L658.068 764.7C659.014 765.94 659.102 765.957 660.607 766.391L661.227 765.492C660.128 759.898 659.522 754.226 658.414 748.616C661.801 744.312 666.947 741.265 669.727 736.499C671.088 734.167 670.387 732.689 669.745 730.257C664.838 727.361 655.694 727.414 649.957 726.901L647.399 719.172C647.8 714.003 647.572 708.585 647.627 703.389ZM700.945 729.132C701.659 733.437 706.962 739.307 710.275 742.16C710.617 742.454 710.805 742.526 711.171 742.706C710.183 745.705 709.311 749.522 709.539 752.679C710.46 753.256 710.013 753.187 710.819 753.136L711.513 756.462C712.755 756.959 713.423 756.93 714.659 756.326C717.931 754.727 720.714 752.429 724.136 750.922C727.462 753.007 733.395 757.682 737.311 757.448L737.67 756.679C737.209 755.669 736.999 754.923 736.088 754.238C735.346 751.823 734.834 749.31 734.239 746.853C736.273 740.797 743.009 738.711 744.82 733.529C745.338 732.046 744.132 730.603 743.474 729.287C739.906 727.365 733.707 727.366 729.654 726.845L722.618 713.019C720.263 717.554 718.226 722.28 716.091 726.923C711.155 727.434 706.141 727.617 701.256 728.519L700.945 729.132Z"/>
		<path fill="#B73F22" transform="matrix(0.790039 0 0 0.790039 -101.125 -0.00012207)" d="M864.326 703.993C875.95 705.24 887.565 706.564 899.17 707.967C896.302 711.896 893.186 715.87 889.561 719.135C879.511 716.554 863.715 716.647 852.585 715.099C856.451 711.347 860.365 707.644 864.326 703.993Z"/>
		<path fill="#B73F22" transform="matrix(0.790039 0 0 0.790039 -101.125 -0.00012207)" d="M382.981 708.308C394.289 706.735 405.71 705.491 417.066 704.293C419.926 707.458 422.717 710.748 425.747 713.75C418.715 714.513 396.167 715.558 391.259 718.441C388.207 715.299 385.627 711.788 382.981 708.308Z"/>
		<path fill="#FC0" transform="matrix(0.790039 0 0 0.790039 -101.125 -0.00012207)" d="M641.279 706.817C643.633 710.753 645.461 715.02 647.399 719.172L649.957 726.901C655.694 727.414 664.838 727.361 669.745 730.257C665.072 735.14 659.831 739.347 654.978 744.027C655.595 745.904 656.262 747.775 656.76 749.688C657.484 753.164 660.016 761.139 658.561 764.205C657.749 763.403 656.771 762.939 655.776 762.406C650.795 759.992 645.828 757.549 640.875 755.077C635.022 758.265 629.111 761.344 623.146 764.315C621.449 760.202 624.946 749.279 625.896 744.781L625.327 743.941C622.117 740.176 618.681 736.779 615.107 733.372L611.391 729.206L630.533 726.859C634.72 720.785 637.846 713.374 641.279 706.817Z"/>
		<path fill="#0A453B" transform="matrix(0.790039 0 0 0.790039 -101.125 -0.00012207)" d="M316.28 718.416C338.247 714.103 360.816 711.558 382.981 708.308C385.627 711.788 388.207 715.299 391.259 718.441C399.692 728.376 409.191 736.73 418.725 745.565C411.307 744.813 403.405 742.032 396.201 740.101L355.636 729.222C345.424 726.488 324.854 722.314 316.28 718.416Z"/>
		<path fill="#0A453B" transform="matrix(0.790039 0 0 0.790039 -101.125 -0.00012207)" d="M899.17 707.967C920.267 710.467 941.845 712.896 962.666 717.116C950.863 722.482 934.994 725.586 922.334 729.564C909.515 733.635 896.732 737.821 883.987 742.119C877.165 744.396 869.253 748.117 862.151 748.768C860.879 748.82 859.498 748.557 858.226 748.429C869.257 739.205 879.543 729.443 889.561 719.135C893.186 715.87 896.302 711.896 899.17 707.967Z"/>
		<path fill="#FC0" transform="matrix(0.790039 0 0 0.790039 -101.125 -0.00012207)" d="M426.485 714.222C433.029 713.188 440.196 712.742 446.824 712.745L447.286 712.791C454.974 720.012 463.729 726.311 472.321 732.399C510.337 759.335 553.622 778.216 599.854 785.206C615.162 787.52 630.073 787.444 645.436 788.33L647.074 788.157L647.665 788.318L648.071 804.103C563.861 805.621 486.885 772.111 426.485 714.222Z"/>
		<path fill="#FF400D" transform="matrix(0.790039 0 0 0.790039 -101.125 -0.00012207)" d="M425.747 713.75L426.485 714.222C486.885 772.111 563.861 805.621 648.071 804.103C707.989 801.842 763.628 782.473 812.626 748.005C826.73 738.084 840.088 727.485 852.175 715.161L852.585 715.099C863.715 716.647 879.511 716.554 889.561 719.135C879.543 729.443 869.257 739.205 858.226 748.429C848.165 755.635 839.073 764.164 828.846 771.314C783.596 802.953 732.101 824.305 676.897 830.025C603.358 837.899 529.315 820.716 466.756 781.257C450.308 770.946 435.113 758.961 420.061 746.751L418.725 745.565C409.191 736.73 399.692 728.376 391.259 718.441C396.167 715.558 418.715 714.513 425.747 713.75Z"/>
		<path fill="#FC0" transform="matrix(0.790039 0 0 0.790039 -101.125 -0.00012207)" d="M579.453 729.294L578.975 729.882C576.438 732.981 569.982 737.332 569.796 741.371L570.823 744.127C570.853 744.822 570.766 745.605 571.073 746.236C571.288 748.831 571.426 751.438 571.972 753.988C567.627 751.525 563.187 749.342 558.803 746.97C554.71 749.184 550.595 751.723 546.333 753.572C544.842 750.322 547.377 742.703 548.173 739.121C544.419 735.848 540.97 732.043 537.44 728.521C542.17 727.495 547.08 726.938 551.859 726.121C554.624 722.049 556.706 717.338 558.965 712.963C561.287 717.33 563.393 721.819 565.559 726.265C569.176 726.744 576.881 726.915 579.453 729.294Z"/>
		<path fill="#FCBD36" transform="matrix(0.790039 0 0 0.790039 -101.125 -0.00012207)" d="M830.835 713.263L831.092 713.322C837.575 714.699 846.245 712.835 852.175 715.161C840.088 727.485 826.73 738.084 812.626 748.005C763.628 782.473 707.989 801.842 648.071 804.103L647.665 788.318C703.294 786.486 757.138 768.234 802.42 735.86C812.259 728.974 822.231 721.674 830.835 713.263Z"/>
		<path fill="#FC0" transform="matrix(0.790039 0 0 0.790039 -101.125 -0.00012207)" d="M700.945 729.132L701.256 728.519C706.141 727.617 711.155 727.434 716.091 726.923C718.226 722.28 720.263 717.554 722.618 713.019L729.654 726.845C733.707 727.366 739.906 727.365 743.474 729.287C740.065 732.768 736.545 736.032 732.904 739.264L734.239 746.853C734.834 749.31 735.346 751.823 736.088 754.238C731.21 752.17 726.788 749.302 722.309 746.506C718.455 748.456 714.164 750.391 710.819 753.136C710.013 753.187 710.46 753.256 709.539 752.679C709.311 749.522 710.183 745.705 711.171 742.706L711.563 740.126C709.341 735.627 704.714 732.31 700.945 729.132Z"/>
		<path fill="#B73F22" transform="matrix(0.790039 0 0 0.790039 -101.125 -0.00012207)" d="M711.171 742.706C710.805 742.526 710.617 742.454 710.275 742.16C706.962 739.307 701.659 733.437 700.945 729.132C704.714 732.31 709.341 735.627 711.563 740.126L711.171 742.706Z"/>
		<path fill="#B73F22" transform="matrix(0.790039 0 0 0.790039 -101.125 -0.00012207)" d="M570.823 744.127L569.796 741.371C569.982 737.332 576.438 732.981 578.975 729.882L579.453 729.294C579.944 730.116 581.684 732.491 581.478 733.322C580.693 736.485 575.099 741.252 572.826 743.602C572.162 743.811 571.52 744.074 570.823 744.127Z"/>
		<path fill="#B73F22" transform="matrix(0.790039 0 0 0.790039 -101.125 -0.00012207)" d="M732.904 739.264C736.545 736.032 740.065 732.768 743.474 729.287C744.132 730.603 745.338 732.046 744.82 733.529C743.009 738.711 736.273 740.797 734.239 746.853L732.904 739.264Z"/>
		<path fill="#B73F22" transform="matrix(0.790039 0 0 0.790039 -101.125 -0.00012207)" d="M654.978 744.027C659.831 739.347 665.072 735.14 669.745 730.257C670.387 732.689 671.088 734.167 669.727 736.499C666.947 741.265 661.801 744.312 658.414 748.616L656.76 749.688C656.262 747.775 655.595 745.904 654.978 744.027Z"/>
		<path fill="#B73F22" transform="matrix(0.790039 0 0 0.790039 -101.125 -0.00012207)" d="M625.327 743.941L624.028 744.661C623.067 744.377 622.59 744.11 621.815 743.439C619.31 741.267 615.288 736.702 615.107 733.372C618.681 736.779 622.117 740.176 625.327 743.941Z"/>
		<path fill="#B73F22" transform="matrix(0.790039 0 0 0.790039 -101.125 -0.00012207)" d="M571.073 746.236L571.551 745.727C572.182 749.349 572.658 753.113 573.825 756.604L562.036 751.331C558.573 752.562 551.056 757.378 547.741 756.242C547.056 755.328 546.564 754.704 546.333 753.572C550.595 751.723 554.71 749.184 558.803 746.97C563.187 749.342 567.627 751.525 571.972 753.988C571.426 751.438 571.288 748.831 571.073 746.236Z"/>
		<path fill="#B73F22" transform="matrix(0.790039 0 0 0.790039 -101.125 -0.00012207)" d="M710.819 753.136C714.164 750.391 718.455 748.456 722.309 746.506C726.788 749.302 731.21 752.17 736.088 754.238C736.999 754.923 737.209 755.669 737.67 756.679L737.311 757.448C733.395 757.682 727.462 753.007 724.136 750.922C720.714 752.429 717.931 754.727 714.659 756.326C713.423 756.93 712.755 756.959 711.513 756.462L710.819 753.136Z"/>
		<path fill="#B73F22" transform="matrix(0.790039 0 0 0.790039 -101.125 -0.00012207)" d="M656.76 749.688L658.414 748.616C659.522 754.226 660.128 759.898 661.227 765.492L660.607 766.391C659.102 765.957 659.014 765.94 658.068 764.7L658.561 764.205C660.016 761.139 657.484 753.164 656.76 749.688Z"/>
		<path fill="#B73F22" transform="matrix(0.790039 0 0 0.790039 -101.125 -0.00012207)" d="M643.186 759.723C637.317 762.303 631.805 764.9 626.232 768.048C624.821 767.119 624.056 765.699 623.146 764.315C629.111 761.344 635.022 758.265 640.875 755.077C645.828 757.549 650.795 759.992 655.776 762.406C655.594 762.511 655.42 762.63 655.231 762.722C652.863 763.872 650.186 762.566 647.854 761.835C646.361 760.838 645.06 759.69 643.186 759.723Z"/>
		<path fill="#FF400D" transform="matrix(0.790039 0 0 0.790039 -101.125 -0.00012207)" d="M643.186 759.723C645.06 759.69 646.361 760.838 647.854 761.835C647.978 766.877 648.848 784.449 647.074 788.157L645.436 788.33C644.846 787.951 644.088 787.45 643.839 786.724C641.875 781.007 645.09 766.83 643.186 759.723Z"/>
	</g>
</svg>
